<?xml version="1.0" standalone="no"?>
<!DOCTYPE svg PUBLIC "-//W3C//DTD SVG 1.1//EN" "http://www.w3.org/Graphics/SVG/1.1/DTD/svg11.dtd" >
<svg xmlns="http://www.w3.org/2000/svg" xmlns:xlink="http://www.w3.org/1999/xlink" version="1.1">
<metadata>
Created by FontForge 20170731 at Mon Apr  3 13:31:11 2023
 By Aleksey,,,
Copyright (c) 1992, 2001 Adobe Systems Incorporated.  All Rights Reserved.
</metadata>
<defs>
<font id="BellGothicStd-Black" horiz-adv-x="1138" >
  <font-face 
    font-family="Bell Gothic Std Black"
    font-weight="900"
    font-stretch="normal"
    units-per-em="2048"
    panose-1="2 11 7 6 2 2 2 4 2 4"
    ascent="1638"
    descent="-410"
    x-height="778"
    cap-height="1196"
    bbox="-340 -819 2017 1878"
    underline-thickness="102"
    underline-position="-307"
    unicode-range="U+0020-FB02"
  />
<missing-glyph horiz-adv-x="1024" 
d="M0 0v1434h1024v-1434h-1024zM512 809l348 522h-696zM573 717l349 -522v1044zM164 102h696l-348 523zM102 1239v-1044l349 522z" />
    <glyph glyph-name="fi" unicode="fi" horiz-adv-x="1251" 
d="M47 862v223h160v152q0 25 0.5 39.5t4 40t11 43.5t20.5 39.5t35 40t52 33.5q86 43 225 43q61 0 119 -9v-213h-45t-37 -1.5t-32.5 -4t-23.5 -7t-19.5 -11.5t-12 -17.5t-8.5 -24.5t-2 -32v-111h180v-217h-180v-868h-287v862h-160zM803 0v1085h284v-1085h-284zM1087 1266
h-284v243h284v-243z" />
    <glyph glyph-name="fl" unicode="fl" horiz-adv-x="1251" 
d="M47 862v223h160v152q0 25 0.5 39.5t4 40t11 43.5t20.5 39.5t35 40t52 33.5q48 24 116 33.5t111 9.5t117 -9v-213h-45t-37 -1.5t-32.5 -4t-23.5 -7t-19.5 -11.5t-12 -17.5t-8.5 -24.5t-2 -32v-111h180v-217h-180v-868h-287v862h-160zM809 0v1503h289v-1503h-289z" />
    <glyph glyph-name=".notdef" horiz-adv-x="1024" 
d="M0 0v1434h1024v-1434h-1024zM512 809l348 522h-696zM573 717l349 -522v1044zM164 102h696l-348 523zM102 1239v-1044l349 522z" />
    <glyph glyph-name=".null" horiz-adv-x="0" 
 />
    <glyph glyph-name="nonmarkingreturn" horiz-adv-x="682" 
 />
    <glyph glyph-name="space" unicode=" " horiz-adv-x="563" 
 />
    <glyph glyph-name="exclam" unicode="!" horiz-adv-x="796" 
d="M510 401h-217l-62 959h334zM248 -143v321h313v-321h-313z" />
    <glyph glyph-name="quotedbl" unicode="&#x22;" horiz-adv-x="681" 
d="M401 735v555h246v-555h-246zM31 735v555h245v-555h-245z" />
    <glyph glyph-name="numbersign" unicode="#" horiz-adv-x="1228" 
d="M1061 455l-8 -195h-176l-56 -403h-205l56 403h-187l-55 -403h-205l56 403h-175l9 195h194l33 237h-174l8 195h193l55 403h205l-56 -403h187l55 403h205l-55 -403h157l-8 -195h-176l-33 -237h156zM733 692h-186l-33 -237h186z" />
    <glyph glyph-name="dollar" unicode="$" 
d="M500 1372v174h137v-174q105 -8 211.5 -52.5t179.5 -117.5l-156 -225q-34 46 -67.5 77t-66 46.5t-53.5 21.5t-50 11v-342q96 -33 170 -74.5t135 -100t93 -140t32 -181.5q0 -145 -82 -252q-33 -45 -74 -77.5t-73 -49.5t-76 -28.5t-65 -14t-58 -6.5v-266l-143 2v264
q-67 -1 -129.5 14t-121 46.5t-96.5 57t-92 66.5l140 252q58 -75 159 -143q54 -36 140 -58v428q-18 6 -43.5 16t-76 33t-101.5 56t-87 70q-104 108 -104 258q0 191 125 299q61 53 128.5 76.5t164.5 33.5zM498 840v303q-170 -8 -170 -131q0 -38 13 -66t41.5 -48.5t51 -31
t64.5 -26.5zM635 473v-379q71 3 123.5 47.5t52.5 130.5q0 28 -5 50.5t-32 56.5t-76 61q-15 9 -63 33z" />
    <glyph glyph-name="percent" unicode="%" horiz-adv-x="1820" 
d="M453 770q84 0 142 59.5t58 139.5q0 82 -58.5 141t-141.5 59t-142 -59t-59 -141q0 -85 59 -142t142 -57zM453 580q-163 0 -277.5 112.5t-114.5 276.5q0 161 114.5 276t277.5 115q161 0 276 -115t115 -276q0 -163 -114.5 -276t-276.5 -113zM1346 -131q86 0 144 58.5
t58 138.5q0 82 -59 141t-143 59q-83 0 -142 -59t-59 -141q0 -85 59 -141t142 -56zM1346 -322q-163 0 -277.5 113t-114.5 275t115 276.5t277 114.5t276.5 -114.5t114.5 -276.5t-114 -275t-277 -113zM514 -362h-147l913 1761h147z" />
    <glyph glyph-name="ampersand" unicode="&#x26;" horiz-adv-x="1593" 
d="M807 526l49 -67q77 -107 203 -258q74 111 127 299l276 -90q-69 -239 -200 -400q28 -26 71 -40.5t66.5 -16.5t64.5 -4v-293q-89 -2 -149.5 4t-109.5 26t-78 38.5t-83 60.5q-101 -76 -199.5 -106.5t-230.5 -30.5q-239 0 -375.5 139.5t-136.5 357.5q0 57 12 108.5t29 91
t46.5 77.5t54.5 63t63.5 54t62.5 44t62 38q-13 21 -30 55t-36.5 98.5t-19.5 120.5q0 61 23 118t68 105.5t121.5 77.5t174.5 29q75 0 142 -19.5t122.5 -58t88 -102.5t32.5 -146q0 -51 -14 -97t-41 -82t-55 -64.5t-68.5 -54.5t-67 -41t-65.5 -34zM647 -92q110 0 207 67
q-91 100 -177.5 228t-125.5 207q-64 -33 -109 -97.5t-45 -140.5q0 -31 8 -64.5t27 -69.5t46.5 -64.5t71.5 -47t97 -18.5zM606 913q0 -29 13 -64.5t28 -62t47 -79.5q174 92 174 206q0 49 -35 89t-96 40q-20 0 -39.5 -5t-41.5 -17.5t-36 -40t-14 -66.5z" />
    <glyph glyph-name="quotesingle" unicode="'" horiz-adv-x="454" 
d="M104 571v555h246v-555h-246z" />
    <glyph glyph-name="parenleft" unicode="(" horiz-adv-x="796" 
d="M377 1225h311q-7 -12 -48.5 -68.5t-47.5 -66.5q-131 -196 -180.5 -390t-49.5 -395q0 -266 107 -545q29 -73 91 -175.5t142 -196.5h-307q-42 40 -119.5 167t-121.5 259q-80 247 -80 499q0 188 38.5 352.5t102 293.5t162.5 266z" />
    <glyph glyph-name="parenright" unicode=")" horiz-adv-x="796" 
d="M109 1225h311q99 -137 162.5 -266t102 -293.5t38.5 -352.5q0 -252 -80 -499q-44 -132 -121.5 -259t-120.5 -167h-307q80 94 142.5 197t91.5 175q106 276 106 545q0 95 -9.5 182t-33.5 188t-71 206.5t-115 208.5q-6 10 -47.5 66.5t-48.5 68.5z" />
    <glyph glyph-name="asterisk" unicode="*" 
d="M512 840l-86 393h250l-78 -387l352 192l78 -233l-401 -45l305 -279l-195 -151l-174 375l-174 -375l-203 135l299 293l-397 35l68 229z" />
    <glyph glyph-name="plus" unicode="+" horiz-adv-x="1228" 
d="M492 334v395h245v-395h393v-246h-393v-395h-245v395h-394v246h394z" />
    <glyph glyph-name="comma" unicode="," horiz-adv-x="569" 
d="M123 -307v313h317v-344l-166 -336h-151l139 367h-139z" />
    <glyph glyph-name="hyphen" unicode="-" horiz-adv-x="681" 
d="M76 90v266h532v-266h-532z" />
    <glyph glyph-name="period" unicode="." horiz-adv-x="569" 
d="M129 -307v321h313v-321h-313z" />
    <glyph glyph-name="slash" unicode="/" horiz-adv-x="569" 
d="M401 1225h244l-477 -1573h-244z" />
    <glyph glyph-name="zero" unicode="0" 
d="M743 313v293q0 107 -13 181.5t-38 115t-55 57.5t-70 17q-39 0 -67 -13t-54 -49.5t-39.5 -112.5t-13.5 -190v-327q0 -104 10.5 -179t26.5 -117t41.5 -66t49 -31t54.5 -7q98 0 133 104t35 324zM82 436q0 82 1.5 130.5t9 127t27 145.5t50.5 124q20 37 40 66t56 66.5t76 63
t100 43t129 17.5q49 0 97.5 -11t101 -36t101.5 -73.5t85 -115.5q51 -94 76 -241.5t25 -307.5q0 -67 -5 -143t-29.5 -198.5t-66.5 -205.5q-122 -243 -372 -243q-103 0 -185.5 34.5t-134 84t-88.5 129t-54.5 143t-27.5 154.5t-11 135.5t-1 111.5z" />
    <glyph glyph-name="one" unicode="1" 
d="M141 -307v241h291v1020h-313v242h614v-1262h277v-241h-244h-625z" />
    <glyph glyph-name="two" unicode="2" 
d="M283 705l-250 157q21 38 31 56.5t32.5 55t38 55.5t42.5 49.5t50.5 47t58 37t70 31t81 18t95.5 7.5q115 0 209 -37t153.5 -99.5t91.5 -140.5t32 -164q0 -69 -18 -132t-44.5 -110.5t-73.5 -100.5t-86.5 -89t-101.5 -88q-153 -128 -194 -164q-47 -41 -62.5 -63.5
t-27.5 -67.5h618v-270h-977q12 119 28.5 192.5t57 153.5t106.5 154.5t179 177.5q64 58 93 85t70.5 68.5t58.5 65t36 57t25 63t6 64.5q0 86 -48.5 145.5t-138.5 59.5q-38 0 -71 -12t-55.5 -28t-41.5 -44t-30 -49t-21 -53.5t-13.5 -47.5t-8.5 -40z" />
    <glyph glyph-name="three" unicode="3" 
d="M39 -348v264q80 -14 184 -14q127 0 241 32.5t191.5 101t77.5 159.5q0 55 -19 94.5t-49.5 58t-59 26t-58.5 7.5q-98 0 -195 -53l-90 198q168 80 266 148q131 90 131 186q0 56 -43 92.5t-106 36.5q-57 0 -107 -18.5t-90.5 -53.5t-62.5 -60.5t-51 -63.5l-152 196
q44 47 87 83.5t104 73.5t139.5 57t167.5 20q173 0 289 -82q120 -85 120 -232q0 -57 -17 -106.5t-37.5 -80t-59 -62.5t-59.5 -45t-60 -35v-11q38 -7 64.5 -14.5t65.5 -24t72.5 -46t59.5 -70.5q53 -83 53 -187q0 -142 -64.5 -254.5t-172.5 -183.5q-221 -145 -606 -145
q-62 0 -154 8z" />
    <glyph glyph-name="four" unicode="4" 
d="M616 958l-376 -645h376v645zM43 68v313l469 815h403v-883h127v-245h-127v-375h-297v375h-575z" />
    <glyph glyph-name="five" unicode="5" 
d="M313 375h-217l88 821h781v-262h-564l-30 -275l16 -2q85 39 195 39q121 0 214.5 -39.5t150 -109t84.5 -156.5t28 -188q0 -246 -176 -402q-93 -82 -217 -117.5t-240 -35.5q-161 0 -371 49l47 256q124 -47 254 -47q192 0 283 67q54 39 83.5 102.5t29.5 135.5q0 52 -15 95.5
t-39 71.5t-55.5 47t-63.5 27.5t-65 8.5q-45 0 -86.5 -15t-63 -30t-51.5 -41z" />
    <glyph glyph-name="six" unicode="6" 
d="M553 -129q39 0 70 11.5t50.5 28t33.5 44.5t21 50t10.5 56.5t4 52.5t0.5 48q0 104 -36 157q-49 72 -150 72q-38 0 -68.5 -11.5t-49.5 -27t-33 -42t-20.5 -47.5t-10 -52.5t-4 -47t-0.5 -40.5q0 -252 182 -252zM410 1217h393q-79 -79 -157.5 -177.5t-127.5 -183.5
q-40 -65 -85.5 -156.5t-57.5 -148.5q96 74 235 74q87 0 166.5 -32.5t142 -93t99.5 -155t37 -209.5q0 -31 -3.5 -65t-15.5 -84t-32 -94.5t-57 -91t-86.5 -80t-124 -55t-165.5 -21.5q-246 0 -381 155.5t-135 423.5q0 169 29.5 296.5t95.5 283.5q48 113 79 168t151 246z" />
    <glyph glyph-name="seven" unicode="7" 
d="M113 926v270h954v-119q0 -14 -15 -40t-16 -29q-107 -241 -148.5 -345.5t-94.5 -259.5q-145 -425 -197 -710h-338q98 350 248 710q70 168 141 321t98 202h-632z" />
    <glyph glyph-name="eight" unicode="8" 
d="M569 375q-17 0 -38 -4t-52.5 -21.5t-52.5 -46.5q-43 -61 -43 -174q0 -79 16 -132t45 -77.5t58 -33.5t67 -9q44 0 77 12.5t54 34.5t34.5 54.5t18.5 68t5 80.5q0 22 -0.5 36.5t-4 43t-10.5 48t-21 44t-33.5 40t-50 26t-69.5 10.5zM565 586q51 0 86 22.5t49.5 58.5
t19.5 62.5t5 52.5q0 209 -158 209q-161 0 -161 -203q0 -202 159 -202zM819 492v-15q31 -12 39.5 -15t34 -14t36.5 -20t30 -24t32.5 -33.5t26.5 -42.5q49 -93 49 -215q0 -121 -45 -218.5t-127 -156.5q-119 -86 -334 -86q-106 0 -192 30t-139.5 76t-90 106t-51 115.5
t-14.5 108.5q0 81 11.5 132.5t43.5 103.5q32 47 80.5 87.5t103.5 63.5v14q-81 35 -142.5 117.5t-61.5 206.5q0 36 3 62.5t15 74.5t45 94.5t84 85.5q126 95 311 95q126 0 228.5 -46t165.5 -139t63 -219q0 -45 -9 -86t-21 -69.5t-34 -56.5t-36.5 -43.5t-40.5 -33.5t-35 -23
t-29 -17z" />
    <glyph glyph-name="nine" unicode="9" 
d="M563 1008q-45 0 -79.5 -14.5t-54.5 -42t-32.5 -54t-17 -64t-5.5 -56t-1 -46.5q0 -22 0.5 -35.5t4 -42t10 -47.5t20.5 -43.5t33 -39.5t49.5 -25.5t68.5 -10.5q102 0 145.5 68.5t43.5 196.5q0 35 -3.5 65.5t-15 67t-31 62.5t-54.5 43.5t-81 17.5zM707 -336h-236h-158
q105 102 190.5 217.5t133.5 207t73 151t31 88.5q-94 -74 -252 -74q-15 0 -39 3.5t-71 14.5t-100 42t-95 77q-57 62 -90 153t-33 181q0 247 132.5 380.5t351.5 133.5q81 0 151.5 -19.5t118.5 -51t75.5 -56t47.5 -49.5q125 -153 125 -447q0 -36 -9.5 -122.5t-29.5 -169.5
q-37 -145 -120.5 -322t-196.5 -338z" />
    <glyph glyph-name="colon" unicode=":" horiz-adv-x="681" 
d="M184 -307v321h314v-321h-314zM184 328v321h314v-321h-314z" />
    <glyph glyph-name="semicolon" unicode=";" horiz-adv-x="681" 
d="M182 -307v313h318v-344l-166 -336h-152l140 367h-140zM182 328v321h314v-321h-314z" />
    <glyph glyph-name="less" unicode="&#x3c;" horiz-adv-x="1228" 
d="M1135 -88v-236l-1041 439v192l1041 438v-235l-721 -299z" />
    <glyph glyph-name="equal" unicode="=" horiz-adv-x="1228" 
d="M1130 563v-246h-1032v246h1032zM1130 104v-245h-1032v245h1032z" />
    <glyph glyph-name="greater" unicode="&#x3e;" horiz-adv-x="1228" 
d="M94 -88l721 299l-721 299v235l1041 -438v-192l-1041 -439v236z" />
    <glyph glyph-name="question" unicode="?" horiz-adv-x="1024" 
d="M596 244h-254q0 94 7 157.5t28 114t39.5 79.5t60.5 83q13 16 34.5 40.5t38 44.5t32.5 42q34 49 34 92q0 58 -34 88.5t-93 30.5q-101 0 -163 -170l-254 96q24 48 42 79.5t56.5 76t81.5 70.5t113 45.5t155 19.5q181 0 293 -92q100 -84 100 -240q0 -129 -149 -278
q-51 -51 -70 -72.5t-45 -57t-33.5 -65.5t-13.5 -75t-6 -109zM313 -307v321h314v-321h-314z" />
    <glyph glyph-name="at" unicode="@" horiz-adv-x="1638" 
d="M995 424q0 73 -43 121.5t-114 48.5q-82 0 -138.5 -63t-56.5 -142q0 -71 40 -117.5t110 -46.5q89 0 145.5 59.5t56.5 139.5zM1260 -31l96 -110q-205 -191 -490 -191q-211 0 -387.5 94t-281.5 264.5t-105 381.5q0 208 102.5 379t277 267.5t382.5 96.5q131 0 256 -43
t222.5 -118t156.5 -187.5t59 -241.5q0 -88 -20 -164t-53.5 -130t-77.5 -98t-90.5 -71.5t-94.5 -46t-87.5 -26t-71.5 -7.5q-55 0 -87.5 25t-33.5 72l-4 4q-86 -101 -219 -101q-110 0 -195.5 96t-85.5 230q0 89 24 168t70 141t120 98.5t167 36.5q161 0 244 -116l18 90h178
l-82 -447q-7 -26 -4 -68t23 -42q73 0 128.5 73.5t55.5 206.5q0 156 -68 267t-184.5 165t-269.5 54q-246 0 -398.5 -157.5t-152.5 -405.5q0 -170 76 -298.5t208.5 -195t301.5 -66.5q217 0 377 121z" />
    <glyph glyph-name="A" unicode="A" horiz-adv-x="1366" 
d="M850 248l-166 680h-8l-164 -680h338zM479 1196h400l434 -1503h-322l-76 299h-460l-78 -299h-322z" />
    <glyph glyph-name="B" unicode="B" horiz-adv-x="1366" 
d="M197 -307v1503h495q241 0 340 -61q80 -49 121 -135t41 -185q0 -132 -58 -218.5t-149 -107.5v-10q40 -6 80 -29.5t77 -64t60 -106t23 -144.5q0 -97 -24 -175.5t-93 -147.5q-75 -76 -168.5 -97.5t-259.5 -21.5h-485zM518 352v-422h164q213 0 213 215q0 148 -96 189
q-47 18 -281 18zM518 965v-381q57 0 91 0.5t74.5 3.5t62 8.5t46 15.5t36 24t22.5 35t14.5 48t3.5 63q0 38 -8 67.5t-19.5 48.5t-30.5 32.5t-34.5 20t-38.5 10t-36 4t-33 0.5h-150z" />
    <glyph glyph-name="C" unicode="C" horiz-adv-x="1366" 
d="M170 238v452q0 260 137 399.5t398 139.5q201 0 329 -101q48 -38 80.5 -90t47.5 -112t20.5 -106.5t7.5 -102.5h-330q-1 23 -1.5 37t-4.5 42t-10 46t-19 41.5t-30 37t-44 23.5t-61 10q-75 0 -125 -47q-55 -51 -55 -164v-571q0 -25 0.5 -39.5t4 -43t10 -47t19.5 -41.5
t32 -36.5t48.5 -23t67.5 -9.5q96 0 136 71t40 202h332q-2 -109 -14 -185q-7 -34 -13 -55t-22.5 -61t-47.5 -78.5t-75 -73.5q-57 -46 -137 -71q-52 -17 -117 -24q-38 -5 -74 -5q-127 0 -217 29q-99 33 -172 104q-30 29 -49 54.5t-43 76.5t-36.5 132t-12.5 190z" />
    <glyph glyph-name="D" unicode="D" horiz-adv-x="1366" 
d="M166 -307v1503h364q178 0 295 -24t179 -64t108 -107q51 -75 70.5 -183.5t19.5 -354.5l-2 -256q0 -329 -207 -434q-75 -38 -144.5 -52.5t-176.5 -23.5q-43 -4 -506 -4zM502 930v-969h94q47 0 80 4.5t71 22.5t61.5 50.5t39.5 92t16 143.5q0 25 2 92.5t2 92.5q0 158 -10 243
t-45 136q-44 64 -102.5 78t-208.5 14z" />
    <glyph glyph-name="E" unicode="E" horiz-adv-x="1366" 
d="M180 -307v1503h1010v-274h-682v-320h469v-274h-465v-355h725v-280h-1057z" />
    <glyph glyph-name="F" unicode="F" horiz-adv-x="1251" 
d="M162 -307v1503h999v-274h-667v-324h444v-279h-444v-626h-332z" />
    <glyph glyph-name="G" unicode="G" horiz-adv-x="1366" 
d="M147 233v408q0 56 1 88t9 91t23.5 101.5t46.5 94t76 92.5q79 71 173 95t222 24q217 0 352.5 -125t135.5 -340h-328q-9 194 -186 194q-49 0 -85 -16.5t-54.5 -40t-29.5 -58.5t-13.5 -61t-2.5 -59v-473q0 -161 42.5 -239.5t156.5 -78.5q35 0 63.5 8.5t46 20.5t30.5 31.5
t19 35.5t9 38.5t3.5 34t0.5 28.5v102h-176v250h504v-803h-148l-43 105h-14q-18 -21 -30.5 -33.5t-42 -33t-62 -32.5t-87 -21t-120.5 -9q-257 0 -389 166q-59 75 -81 171t-22 244z" />
    <glyph glyph-name="H" unicode="H" horiz-adv-x="1478" 
d="M193 -307v1503h333v-569h422v569h338v-1503h-332v649h-426v-649h-335z" />
    <glyph glyph-name="I" unicode="I" horiz-adv-x="796" 
d="M741 -307h-686v133h176v1239h-176v131h686v-131h-178v-1235h178v-137z" />
    <glyph glyph-name="J" unicode="J" horiz-adv-x="1024" 
d="M10 166h266v-84.5t5 -69.5t16 -53t32.5 -33.5t53.5 -11.5q62 0 85.5 33.5t23.5 97.5v1151h327v-1163q0 -238 -168 -330q-96 -51 -227 -51q-56 0 -87 2t-79 14t-88 37q-39 24 -68 54.5t-46 66.5t-27.5 66t-14.5 72t-5 64.5t-1 61.5q0 51 2 76z" />
    <glyph glyph-name="K" unicode="K" horiz-adv-x="1478" 
d="M979 1196h362l-458 -700l534 -803h-395l-498 778zM176 -307v1503h336v-1503h-336z" />
    <glyph glyph-name="L" unicode="L" horiz-adv-x="1251" 
d="M156 -307v1503h336v-1223h661v-280h-997z" />
    <glyph glyph-name="M" unicode="M" horiz-adv-x="1820" 
d="M201 -307v1503h442l178 -627q7 -25 20.5 -72t22.5 -85q22 -84 45 -189h11q33 180 81 352l177 621h444v-1503h-289v809q0 70 15 428h-9l-311 -1237h-227l-320 1237h-10q1 -22 4.5 -124t6.5 -194t3 -120v-799h-284z" />
    <glyph glyph-name="N" unicode="N" horiz-adv-x="1478" 
d="M197 -307v1503h315l387 -702q36 -69 51 -103q2 -5 16 -38.5t17 -39.5h10l-8 152q-6 102 -6 172v559h303v-1503h-270l-400 729q-9 16 -15 27.5t-11 21.5t-14 30t-15.5 35.5t-24 57t-32.5 76.5h-11q11 -237 11 -273v-704h-303z" />
    <glyph glyph-name="O" unicode="O" horiz-adv-x="1366" 
d="M502 717v-522q0 -64 7.5 -110t26 -84t54.5 -57.5t90 -19.5q37 0 66 10.5t47.5 24.5t31.5 39.5t19 45.5t9.5 52.5t4 50t0.5 48.5v522q0 30 -0.5 46t-3.5 44.5t-9.5 44.5t-19 37t-30.5 32t-46.5 19t-64.5 8q-182 0 -182 -231zM166 262v404q0 270 131 415q130 144 377 144
q261 0 395 -146q66 -70 98.5 -180t32.5 -285v-364q0 -161 -30 -267.5t-99 -181.5q-138 -149 -401 -149q-49 0 -98 7t-107 28t-106 54t-90 89t-64 129q-39 125 -39 303z" />
    <glyph glyph-name="P" unicode="P" horiz-adv-x="1366" 
d="M526 948v-440q133 0 181 2.5t75 13.5q11 4 23 10.5t31 23t32.5 38t24 57.5t10.5 80q0 52 -8.5 88.5t-25 57.5t-31 31t-35.5 18q-38 14 -79.5 17t-197.5 3zM195 -307v1503h495q288 0 420 -119q137 -122 137 -354q0 -66 -14 -125t-35 -99.5t-49 -74.5t-51 -53t-47 -33
q-51 -31 -115 -48t-109 -21t-120 -7l-181 -6v-563h-331z" />
    <glyph glyph-name="Q" unicode="Q" horiz-adv-x="1366" 
d="M1309 -123v-323q-39 0 -56.5 1t-48 7.5t-61.5 21.5q-117 57 -146 156q-130 -88 -327 -88q-49 0 -98 7t-107 28t-106 54t-90 89t-64 129q-39 125 -39 303v404q0 270 131 415q130 144 377 144q261 0 395 -146q66 -70 98.5 -180t32.5 -285v-364q0 -195 -43 -303
q38 -48 67.5 -59t84.5 -11zM674 100v281q61 -9 94.5 -27t62.5 -53q14 -18 27 -39v455q0 42 -2 68t-11.5 60.5t-27.5 54t-52.5 34t-84.5 14.5q-178 0 -178 -231v-522q0 -134 38.5 -202.5t141.5 -68.5q87 0 131 60q-35 57 -61.5 79t-77.5 37z" />
    <glyph glyph-name="R" unicode="R" horiz-adv-x="1366" 
d="M502 963v-416q147 0 187.5 2t74.5 14q37 13 61 34.5t34.5 50.5t14 54.5t3.5 61.5q0 76 -24 118.5t-75 61.5q-37 13 -84.5 16t-191.5 3zM502 307v-614h-326v1503h486q61 0 108.5 -3t107 -13.5t104.5 -28.5t91 -50.5t75 -77.5t47.5 -112t18.5 -151q0 -315 -286 -400
l327 -667h-358l-285 614h-110z" />
    <glyph glyph-name="S" unicode="S" horiz-adv-x="1251" 
d="M1118 956l-248 -163q-38 72 -107 120t-153 48q-48 0 -84 -14t-52.5 -32t-26.5 -42t-11.5 -36t-1.5 -22q0 -31 11.5 -57t28.5 -43.5t44.5 -34t50.5 -26t56 -21.5l190 -70q75 -28 145 -73.5t111 -102.5q84 -117 84 -264q0 -268 -213 -397q-61 -37 -143 -56.5t-146 -19.5
q-207 0 -332 65t-223 240l256 170q42 -97 116 -151t169 -54q31 0 62.5 8t64.5 25.5t53.5 53t20.5 83.5q0 19 -3 35t-6.5 28.5t-15.5 25.5t-20 22t-30.5 21.5t-36.5 20t-49 22t-56.5 23t-69.5 27.5q-55 21 -95.5 39t-87.5 44t-80 52t-65.5 62.5t-52 77.5t-31.5 95t-12 116
q0 190 131 308t358 118q164 0 285 -67t215 -204z" />
    <glyph glyph-name="T" unicode="T" horiz-adv-x="1251" 
d="M76 1196h1102v-274h-375v-1229h-344v1229h-383v274z" />
    <glyph glyph-name="U" unicode="U" horiz-adv-x="1478" 
d="M195 223v973h342v-991q0 -28 0.5 -44.5t4 -49.5t11 -53.5t22 -48t35.5 -43t54 -27t75 -11.5q19 0 32 0.5t37 6t41 15.5t37.5 30t33 48.5t21.5 73.5t9 101v993h334v-995q0 -305 -156 -432q-142 -115 -370 -115q-125 0 -235.5 31.5t-176.5 93.5q-52 49 -84.5 105.5t-46 120
t-17 108.5t-3.5 110z" />
    <glyph glyph-name="V" unicode="V" horiz-adv-x="1366" 
d="M868 -307h-358l-459 1503h330l233 -809q65 -227 72 -256h8q34 135 72 270l223 795h328z" />
    <glyph glyph-name="W" unicode="W" horiz-adv-x="1933" 
d="M70 1196h299l155 -711q32 -132 35 -151l27 -148h12q1 5 14.5 69t16.5 79q2 13 18.5 77.5t18.5 75.5l163 709h283l162 -707q2 -12 34 -153.5t35 -149.5h9q6 35 21 106.5t26.5 126.5t11.5 56l160 721h295l-357 -1503h-297l-180 739q-36 146 -57 279h-8q-1 -3 -28.5 -131
t-33.5 -152l-174 -735h-297z" />
    <glyph glyph-name="X" unicode="X" horiz-adv-x="1366" 
d="M49 -307l436 780l-428 723h353l180 -317q8 -15 41.5 -81.5t36.5 -72.5h12l82 156l170 315h358l-420 -717l449 -786h-356l-201 381q-36 68 -74 145h-12q-14 -25 -23 -43t-23.5 -46.5t-31.5 -59.5l-192 -377h-357z" />
    <glyph glyph-name="Y" unicode="Y" horiz-adv-x="1366" 
d="M860 -307h-332v594l-475 909h355l190 -375q53 -110 86 -184h10q13 29 86 180l183 379h350l-453 -897v-606z" />
    <glyph glyph-name="Z" unicode="Z" horiz-adv-x="1251" 
d="M152 922v274h999v-266l-643 -957h643v-280h-1049v272l664 957h-614z" />
    <glyph glyph-name="bracketleft" unicode="[" horiz-adv-x="796" 
d="M100 -575v1771h596v-145h-321v-1479h317v-147h-592z" />
    <glyph glyph-name="backslash" unicode="\" horiz-adv-x="569" 
d="M-76 1225h244l477 -1573h-244z" />
    <glyph glyph-name="bracketright" unicode="]" horiz-adv-x="796" 
d="M696 1196v-1771h-592v147h318v1479h-322v145h596z" />
    <glyph glyph-name="asciicircum" unicode="^" horiz-adv-x="1228" 
d="M311 199h-243l438 927h217l438 -927h-246l-301 688z" />
    <glyph glyph-name="underscore" unicode="_" horiz-adv-x="1024" 
d="M1024 -563h-1024v102h1024v-102z" />
    <glyph glyph-name="grave" unicode="`" horiz-adv-x="569" 
d="M240 1204l192 -297h-207l-301 297h316z" />
    <glyph glyph-name="a" unicode="a" horiz-adv-x="1024" 
d="M197 494l-136 168q45 35 73.5 54t79.5 43t115.5 35t147.5 11q79 0 173.5 -24.5t152.5 -82.5q38 -38 57.5 -83.5t22 -71t2.5 -66.5v-532q0 -7 3.5 -20t19 -30t40.5 -18v-196h-84q-149 0 -223 135h-8q-30 -38 -50 -58t-51 -39q-96 -55 -188 -55q-49 0 -95 14t-92.5 46
t-75 96t-28.5 153q0 43 9.5 85.5t33 92.5t72.5 95.5t119 77.5q143 64 311 75q0 87 -3 116.5t-17 49.5q-14 21 -46.5 34t-72.5 13q-44 0 -83.5 -10t-74 -31t-54.5 -36t-50 -41zM596 80v168q-270 -51 -270 -238q0 -57 31.5 -95t82.5 -38q46 0 79 21t48.5 54.5t22 64.5t6.5 63z
" />
    <glyph glyph-name="b" unicode="b" 
d="M133 -307v1503h289v-551h6q39 46 78.5 79t67.5 49t59.5 24.5t47.5 10t38 1.5q54 0 96.5 -14.5t70.5 -37t49 -57.5t31.5 -68.5t17 -78.5t8 -78t1.5 -76l2 -166q0 -211 -14 -311q-4 -23 -10 -46t-26 -62t-48 -67t-79 -49.5t-116 -21.5q-182 0 -286 193h-13v-176h-270z
M422 500v-486q21 -22 36.5 -36t51.5 -31t74 -17q29 0 49 7.5t33 28t20 41t10.5 64t4.5 78.5t1 101v69.5t-1 59t-2.5 52t-4.5 42t-7 36t-10.5 27t-14.5 21.5t-18.5 13.5t-24 9t-29.5 2.5q-39 0 -71.5 -16t-96.5 -66z" />
    <glyph glyph-name="c" unicode="c" horiz-adv-x="1024" 
d="M877 457h-232q-2 26 -6 44t-15.5 38t-35.5 30.5t-60 10.5q-38 0 -65.5 -15t-40.5 -33.5t-20 -50t-8 -48.5t-1 -44v-317q0 -104 29 -144.5t110 -40.5q121 0 121 156h246q-1 -28 -2 -42.5t-5 -49.5t-10.5 -56.5t-20.5 -55t-32 -55t-46.5 -46.5t-64 -39.5t-85.5 -24.5
t-109 -10q-195 0 -293 90q-127 114 -127 346v256q0 99 21 178t65.5 142t122.5 97t185 34q37 0 66 -2.5t76.5 -12.5t90.5 -36.5t76 -67.5q24 -29 39 -59t21 -65t7.5 -52t2.5 -55z" />
    <glyph glyph-name="d" unicode="d" 
d="M672 645h10v551h291v-1503h-271v176h-12q-68 -115 -138 -154t-161 -39q-68 0 -120 24.5t-81 65t-44.5 78t-22.5 78.5q-14 82 -14 264q0 132 0.5 183.5t5.5 121.5t16 117q20 91 84 146t172 55q63 0 113.5 -16t85 -46.5t50 -50t36.5 -51.5zM682 14v486q-89 82 -168 82
q-27 0 -46.5 -7.5t-31.5 -28t-19 -39t-10 -59.5t-3.5 -68t-0.5 -85q0 -206 7 -254q17 -111 110 -111q38 0 74 17t51.5 31t36.5 36z" />
    <glyph glyph-name="e" unicode="e" horiz-adv-x="1024" 
d="M879 176h-514q1 -24 0 -51.5t3.5 -56t10.5 -56t21 -51.5t35.5 -42.5t53 -29t74.5 -10.5q68 0 131.5 17t157.5 63l31 -217q-75 -26 -111 -37.5t-101 -23t-132 -11.5q-344 0 -418 279q-9 36 -15.5 89.5t-9 86t-2.5 41.5q0 94 1.5 143.5t7.5 122.5t22.5 126.5t42.5 96.5
q93 154 332 154q83 0 147.5 -23t100 -54.5t65.5 -76.5q46 -67 56 -155t10 -324zM365 338h276q0 52 -1 79.5t-5 67t-13 60.5t-24.5 42.5t-41 30.5t-60.5 9q-39 0 -65.5 -17t-39.5 -45.5t-20 -65.5t-6.5 -78t0.5 -83z" />
    <glyph glyph-name="f" unicode="f" horiz-adv-x="796" 
d="M72 555v223h159v162q0 26 1 41.5t7 45t18 50.5t37 45.5t60 42.5q86 43 226 43q78 0 141 -8v-213q-43 0 -62 -0.5t-47 -2t-38.5 -5.5t-25 -10.5t-19 -17.5t-8 -26t-3.5 -36v-111h203v-217h-203v-868h-287v862h-159z" />
    <glyph glyph-name="g" unicode="g" 
d="M152 -489l178 106q17 -21 27 -32.5t32.5 -30.5t51.5 -28t63 -9q46 0 96 22t72 70q16 38 16 125v164h-10q-103 -156 -293 -156q-85 0 -149 50.5t-89 115.5q-22 56 -22 188v303q0 34 0.5 56.5t6 70.5t15 81.5t30 75.5t48.5 68.5t73 45t101 18.5q50 0 93.5 -15t62.5 -28
t47 -37q48 -40 96 -127h9v185h270v-922q0 -61 -1 -96.5t-10 -99t-25 -103.5t-49.5 -89.5t-80.5 -78t-120.5 -48.5t-166.5 -20q-70 0 -130 12t-99.5 30.5t-70.5 42.5t-47 46t-25 44zM688 43v422q-18 26 -68 48t-85 22q-84 0 -107 -72q-9 -27 -14.5 -89t-5.5 -100
q0 -45 5.5 -125t14.5 -106q27 -78 107 -78q28 0 52.5 7.5t46.5 23.5t29 22.5t25 24.5z" />
    <glyph glyph-name="h" unicode="h" 
d="M141 -307v1503h289v-440l-4 -148h12q111 197 301 197q141 0 211 -107q23 -34 34.5 -78.5t13 -72t1.5 -74.5v-780h-286v698q0 26 -1 43t-6.5 42t-15 40t-29.5 26t-47 11q-25 0 -44.5 -5t-45 -23t-39.5 -30t-55 -49v-753h-289z" />
    <glyph glyph-name="i" unicode="i" horiz-adv-x="569" 
d="M143 -307v1085h283v-1085h-283zM426 1204v-246h-283v246h283z" />
    <glyph glyph-name="j" unicode="j" horiz-adv-x="681" 
d="M14 -666v238q30 0 43 0.5t39 2.5t39 7t31 15.5t27 25t15.5 37.5t6.5 53v1065h287v-1143q0 -76 -17.5 -130.5t-74.5 -100.5q-52 -42 -117 -60t-182 -18q-27 0 -97 8zM213 958v252h289v-252h-289z" />
    <glyph glyph-name="k" unicode="k" 
d="M463 274l252 504h303l-268 -487l333 -598h-319zM143 -307v1503h285v-1503h-285z" />
    <glyph glyph-name="l" unicode="l" horiz-adv-x="569" 
d="M141 -307v1503h289v-1503h-289z" />
    <glyph glyph-name="m" unicode="m" horiz-adv-x="1705" 
d="M145 -307v1085h256v-203h9q39 75 87 125.5t94.5 71t76 27t55.5 6.5q52 0 93.5 -16.5t64.5 -37.5t41 -54t24 -51t12 -44h11q22 32 37 52t47 52t63.5 51t79 33.5t100.5 14.5q83 0 145.5 -41.5t88.5 -116.5t26 -270v-684h-280v739q0 119 -107 119q-37 0 -76 -19.5
t-102 -80.5v-758h-280v713q0 20 -1 33.5t-6.5 37t-15.5 38.5t-30.5 26.5t-49.5 11.5q-41 0 -78.5 -24t-103.5 -83v-753h-281z" />
    <glyph glyph-name="n" unicode="n" 
d="M141 -307v1085h267v-200h6q53 98 132 160.5t179 62.5q56 0 101 -14t73 -33.5t48.5 -51t30 -57t15 -61.5t6 -53.5t0.5 -43.5v-794h-288v708q0 20 -0.5 32.5t-5.5 37.5t-14 39.5t-28.5 26.5t-46.5 12q-29 0 -54.5 -8t-50.5 -27.5t-39 -33.5t-42 -44v-743h-289z" />
    <glyph glyph-name="o" unicode="o" 
d="M432 377v-213q0 -113 14 -174q23 -99 125 -99q96 0 117 73.5t21 316.5q0 47 -0.5 72t-3 64t-7.5 59.5t-15 47t-24 39t-36 22t-50 9.5q-40 0 -68.5 -15.5t-42 -35.5t-21 -55t-8.5 -55t-1 -56zM141 264q0 47 0.5 73.5t4 77.5t10.5 82.5t21.5 78t34.5 76t52 62.5t72.5 52
t96.5 32t124 13q57 0 98 -4.5t95.5 -19.5t100 -51t79.5 -91q38 -63 52.5 -157t14.5 -248q0 -81 -1 -124.5t-7 -100.5t-18 -92t-34.5 -73t-55.5 -71q-18 -17 -27 -25t-37 -25.5t-56 -27t-75 -17.5t-102 -8q-173 0 -250 43q-45 25 -77.5 56.5t-53.5 73t-33.5 81.5t-19 99.5
t-8 108.5t-1.5 126z" />
    <glyph glyph-name="p" unicode="p" 
d="M137 -662v1450h266v-172h17q91 195 291 195q208 0 258 -211q11 -43 16 -119.5t5.5 -127t0.5 -167.5q0 -200 -8 -269.5t-45 -127.5q-70 -106 -225 -106q-170 0 -273 159h-14v-504h-289zM426 479v-489q34 -27 51 -39t49.5 -26.5t61.5 -14.5q28 0 48 6t32.5 25t19.5 35.5
t10 58t3.5 69.5t0.5 92v5q0 194 -8 248q-5 37 -17 60.5t-30 33t-30.5 12t-30.5 2.5q-86 0 -160 -78z" />
    <glyph glyph-name="q" unicode="q" 
d="M702 788h265v-1450h-289v504h-14q-14 -21 -24.5 -35t-36.5 -40t-52.5 -42t-69 -29t-90.5 -13q-243 0 -272 249q-2 14 -4 121q0 10 -2 66.5t-2 66.5q0 307 24 414q52 211 252 211q206 0 297 -195h18v172zM678 10v469q-26 31 -70 54.5t-88 23.5q-76 0 -96.5 -57.5
t-20.5 -212.5q0 -228 3 -258q8 -119 110 -119q80 0 162 100z" />
    <glyph glyph-name="r" unicode="r" horiz-adv-x="796" 
d="M119 -307v1085h274v-246h8q37 85 78 142t84.5 84t80 37t81.5 12v-375q-58 0 -86 -1.5t-70 -10.5t-78 -29.5t-79 -56.5v-641h-293z" />
    <glyph glyph-name="s" unicode="s" horiz-adv-x="909" 
d="M795 696l-123 -178q-74 51 -117.5 69.5t-93.5 18.5q-51 0 -81 -22.5t-30 -61.5q0 -40 34.5 -65.5t111.5 -59.5q42 -19 67.5 -31.5t64.5 -35t63.5 -42.5t53 -50.5t44.5 -62.5t27 -74.5t11 -90.5q0 -79 -27 -141.5t-67.5 -100t-92 -62t-96.5 -33.5t-85 -9q-69 0 -130 13.5
t-107.5 38t-72 41.5t-55.5 42l129 197q37 -38 61.5 -59.5t71 -42.5t97.5 -21q58 0 85 30t27 66q0 22 -6.5 38t-27.5 31t-37 23.5t-58 28.5q-183 85 -261.5 170.5t-78.5 210.5q0 87 38 161.5t116 121.5q41 25 85.5 37.5t69 14t64.5 1.5q95 0 186 -34.5t140 -76.5z" />
    <glyph glyph-name="t" unicode="t" horiz-adv-x="796" 
d="M33 569v209h162v393h284v-393h209v-209h-209v-563q0 -19 3 -30.5t15 -28t44 -25t82 -8.5q20 0 79 6v-223q-134 -16 -172 -16q-32 0 -57.5 1.5t-62 8t-64.5 18t-57.5 34t-49 53t-32 77t-12.5 104.5v592h-162z" />
    <glyph glyph-name="u" unicode="u" 
d="M711 778h286v-1085h-262v184h-12q-28 -46 -51.5 -77t-61 -65t-88 -51.5t-112.5 -17.5q-53 0 -96 12.5t-70.5 31t-47.5 46.5t-30.5 53t-16.5 56t-7 50t-1 40v823h287v-706q0 -152 98 -152q41 0 92 29q47 27 93 84v745z" />
    <glyph glyph-name="v" unicode="v" horiz-adv-x="1024" 
d="M78 778h280l111 -428l43 -174h10q42 176 47 195l103 407h276l-286 -1085h-279z" />
    <glyph glyph-name="w" unicode="w" horiz-adv-x="1478" 
d="M631 778h217l121 -454q17 -58 45 -174h8q4 21 41 180l106 448h256l-288 -1085h-217l-129 489q-30 118 -41 166h-11q-5 -20 -19.5 -73.5t-23.5 -90.5l-123 -491h-221l-297 1085h254l107 -440q12 -50 47 -188h12q27 121 31 135q9 28 18 67z" />
    <glyph glyph-name="x" unicode="x" horiz-adv-x="1024" 
d="M649 778h301l-286 -532l309 -553h-303q-87 167 -154 307h-10l-25 -55l-125 -252h-303l303 551l-288 534h301l108 -225q3 -4 9 -17t12.5 -26.5t7.5 -15.5h8q2 4 12.5 29.5t12.5 29.5z" />
    <glyph glyph-name="y" unicode="y" horiz-adv-x="1024" 
d="M57 778h285l156 -534h16l133 534h281l-271 -1005q-37 -138 -78.5 -225t-96.5 -134t-115 -63.5t-150 -16.5q-67 0 -141 15v241l104 -12q105 0 150 74q26 38 31.5 65t5.5 82z" />
    <glyph glyph-name="z" unicode="z" horiz-adv-x="909" 
d="M76 -307v198l426 676h-408v211h731v-198l-417 -672h426v-215h-758z" />
    <glyph glyph-name="braceleft" unicode="{" horiz-adv-x="681" 
d="M2 199v202q19 0 40 2.5t51 11.5t52.5 23.5t39 42t16.5 64.5v368q0 70 30.5 126.5t78.5 89.5t101 50t103 17h164v-184h-113q-32 0 -55 -9t-35 -21.5t-19 -32t-8.5 -35t-1.5 -35.5v-383q-1 -56 -42.5 -101.5t-89.5 -67t-89 -24.5v-6q25 -1 50.5 -6.5t57.5 -19.5t55.5 -34.5
t40 -56t17.5 -80.5v-358q0 -20 1.5 -35.5t8.5 -35t19 -32t35 -21.5t55 -9h113v-184h-164q-40 0 -81.5 10t-83.5 32.5t-74.5 54.5t-53 80t-20.5 105v367q0 39 -23 66.5t-59.5 39t-64 15.5t-52.5 4z" />
    <glyph glyph-name="bar" unicode="|" horiz-adv-x="454" 
d="M104 -819v2048h246v-991v-619v-438h-246z" />
    <glyph glyph-name="braceright" unicode="}" horiz-adv-x="681" 
d="M680 401v-202q-25 0 -52.5 -4t-64 -15.5t-59.5 -39t-23 -66.5v-367q0 -57 -20.5 -105t-53 -80t-74.5 -54.5t-83.5 -32.5t-81.5 -10h-164v184h113q32 0 55 9t35 21.5t19 32t8.5 35t1.5 35.5v358q1 45 17.5 80.5t40 56t55.5 34.5t57.5 19.5t50.5 6.5v6q-41 3 -89 24.5
t-89.5 67t-42.5 101.5v383q0 20 -1.5 35.5t-8.5 35t-19 32t-35 21.5t-55 9h-113v184h164q50 0 103 -17t101 -50t78.5 -89.5t30.5 -126.5v-368q0 -37 16.5 -64.5t39 -42t52.5 -23.5t51 -11.5t40 -2.5z" />
    <glyph glyph-name="asciitilde" unicode="~" horiz-adv-x="1228" 
d="M1020 379l119 -164q-65 -89 -136 -137.5t-169 -48.5q-35 0 -75 11.5t-64.5 22.5t-71.5 35q-48 23 -75 35t-71 23.5t-84 11.5q-57 0 -101 -32.5t-85 -92.5l-119 164q68 90 138 138t167 48q60 0 125 -21.5t111.5 -48t103 -48t101.5 -21.5q107 0 186 125z" />
    <glyph glyph-name="uni00A0" unicode="&#xa0;" horiz-adv-x="563" 
 />
    <glyph glyph-name="exclamdown" unicode="&#xa1;" horiz-adv-x="796" 
d="M293 264h217l55 -958h-334zM248 487v322h313v-322h-313z" />
    <glyph glyph-name="cent" unicode="&#xa2;" 
d="M717 791l127 305h162l-152 -367q24 -23 39 -40t37 -50.5t34 -78.5t13 -99h-238l-229 -551q64 -19 88 -19q39 0 68 14t43 30.5t22 44t9.5 40t2.5 33.5h252v-43.5t-3.5 -48.5t-10 -57t-21 -54t-34.5 -55t-53 -46t-74 -40q-98 -39 -236 -39q-57 0 -145 15l-142 -332h-161
l159 387q-38 35 -56 54t-43.5 60t-36.5 88t-20 124.5t-9 181.5q0 91 7.5 162.5t17 113t27.5 77.5t28.5 50t31.5 37q22 23 38 36.5t56 38t100 37.5t136 13q102 0 166 -22zM422 23l229 548q-41 15 -86 15q-34 0 -60 -11.5t-43 -27t-29 -44.5t-17.5 -51.5t-8.5 -61t-3.5 -59.5
t-0.5 -59q0 -92 2.5 -143t5.5 -67t11 -39z" />
    <glyph glyph-name="sterling" unicode="&#xa3;" 
d="M33 -344v260q219 24 219 281q0 26 -12 149h-230v186h201q-35 137 -35 265q0 194 116 314t329 120q59 0 112.5 -11t104 -35t80 -41t77.5 -48l-125 -219q-64 73 -118.5 109t-126.5 36q-199 0 -199 -217q0 -49 12.5 -134.5t28.5 -138.5h305v-186h-285q7 -65 7 -104
q0 -166 -58 -267q142 -104 260 -104q42 0 71.5 12t47 30t28 49t14 59t5.5 69h205q-1 -70 -10 -130.5t-32.5 -117.5t-59.5 -97t-93 -64.5t-131 -24.5q-212 0 -411 147q-24 -24 -37.5 -37t-46 -37.5t-60.5 -38t-69 -24.5t-84 -10z" />
    <glyph glyph-name="currency" unicode="&#xa4;" horiz-adv-x="1228" 
d="M614 545q-89 0 -141.5 -61t-52.5 -154t52.5 -154t141.5 -61t142 61t53 154t-53 154t-142 61zM37 -106l201 200q-64 106 -64 236q0 131 64 235l-201 201l141 141l201 -200q104 63 235 63q136 0 236 -63l201 200l141 -141l-201 -201q64 -102 64 -235q0 -135 -64 -234
l201 -202l-141 -142l-201 203q-105 -66 -236 -66q-129 0 -235 64l-201 -201z" />
    <glyph glyph-name="yen" unicode="&#xa5;" horiz-adv-x="1366" 
d="M522 80h-334v156h334v260l-12 20h-322v156h248l-248 524h273l92 -192q15 -32 58 -116t67 -134h22q30 63 70 152.5t49 109.5l82 180h270l-239 -524h239v-156h-311l-6 -12v-268h317v-156h-317v-387h-332v387z" />
    <glyph glyph-name="brokenbar" unicode="&#xa6;" horiz-adv-x="454" 
d="M104 -666v717h246v-717h-246zM104 358v717h246v-717h-246z" />
    <glyph glyph-name="section" unicode="&#xa7;" 
d="M350 713v8q-29 18 -49 33.5t-46.5 44.5t-41 70.5t-14.5 91.5q0 115 91.5 196.5t270.5 81.5q240 0 387 -203l-170 -86q-14 24 -23 37t-29.5 36.5t-41 36.5t-53.5 23.5t-70 10.5q-67 0 -106 -32t-39 -79q0 -24 11 -45t25 -36t46.5 -34.5t56 -31.5t72.5 -35q48 -23 70.5 -34
t63.5 -31t60 -31.5t50.5 -30.5t46.5 -33t36.5 -33.5t31.5 -37t21 -39.5t15 -45.5t4 -49.5q0 -43 -10.5 -82t-34 -76.5t-70 -63.5t-110.5 -32v-4q53 -37 86.5 -74t46.5 -71.5t16.5 -55t3.5 -47.5q0 -57 -21.5 -109t-65 -96.5t-117.5 -71t-170 -26.5q-57 0 -132 19.5
t-129 54.5q-77 51 -147 160l193 84q8 -30 22 -56.5t39.5 -54t67.5 -43.5t96 -16q74 0 116 33.5t42 91.5q0 56 -46.5 89.5t-189.5 96.5q-97 43 -154 72t-75 41.5t-47 36.5q-115 94 -115 221q0 110 62.5 177t166.5 79zM717 254q60 0 92.5 36.5t32.5 82.5q0 26 -12.5 49t-29 40
t-50 38t-57.5 33t-70 34q-124 62 -195 62q-55 0 -87 -35t-32 -80q0 -58 45.5 -97t151.5 -91q143 -72 211 -72z" />
    <glyph glyph-name="dieresis" unicode="&#xa8;" horiz-adv-x="569" 
d="M-45 926v237h260v-237h-260zM354 926v237h260v-237h-260z" />
    <glyph glyph-name="copyright" unicode="&#xa9;" horiz-adv-x="1638" 
d="M1016 301h188q-21 -148 -120 -229.5t-234 -81.5q-183 0 -296.5 121.5t-113.5 304.5q0 188 110 308t296 120q138 0 232.5 -79t117.5 -226h-180q-11 63 -57.5 91.5t-112.5 28.5q-88 0 -136 -63.5t-48 -175.5q0 -107 52 -176.5t136 -69.5q72 0 117 31.5t49 95.5zM233 410
q0 -160 79 -295.5t213.5 -214t293.5 -78.5t293.5 78.5t213.5 214t79 295.5t-79 295.5t-213.5 213.5t-293.5 78t-293.5 -78t-213.5 -213.5t-79 -295.5zM819 -332q-151 0 -289 50.5t-245.5 143t-171.5 235t-64 313.5q0 138 41.5 257.5t114.5 207t170.5 150.5t210.5 94.5
t233 31.5q150 0 288 -50.5t245.5 -142.5t172 -234.5t64.5 -313.5t-64.5 -313.5t-172 -235t-245.5 -143t-288 -50.5z" />
    <glyph glyph-name="ordfeminine" unicode="&#xaa;" horiz-adv-x="819" 
d="M211 1032l-88 101q41 29 65.5 43t79.5 28.5t125 14.5q50 0 112.5 -15t100.5 -49q24 -23 37 -50t14.5 -42.5t1.5 -40.5v-320q0 -5 2 -12t12 -17t27 -11v-119h-55q-94 0 -145 82h-4q-35 -41 -66 -58q-53 -32 -123 -32q-31 0 -61 8t-60 27t-48.5 57.5t-18.5 91.5
q0 147 151 211q88 38 203 45q0 52 -2 69.5t-12 30.5q-23 27 -78 27q-37 0 -72 -12.5t-53.5 -24.5t-44.5 -33zM471 782v103q-176 -34 -176 -144q0 -34 20.5 -56.5t55.5 -22.5q39 0 63 22.5t30.5 46.5t6.5 51z" />
    <glyph glyph-name="guillemotleft" unicode="&#xab;" 
d="M334 565h256l-256 -319l264 -316h-258l-264 316zM803 565h256l-256 -319l264 -316h-258l-264 316z" />
    <glyph glyph-name="logicalnot" unicode="&#xac;" horiz-adv-x="1228" 
d="M885 -86v403h-787v246h1032v-649h-245z" />
    <glyph glyph-name="uni00AD" unicode="&#xad;" horiz-adv-x="681" 
d="M76 90v266h532v-266h-532z" />
    <glyph glyph-name="registered" unicode="&#xae;" horiz-adv-x="1638" 
d="M709 678v-201h125q106 -3 106 101q0 52 -25 75t-81 25h-125zM709 342v-311h-189v772h338q42 0 79.5 -5.5t74.5 -20t63 -36.5t42 -57.5t16 -81.5q0 -74 -45.5 -123.5t-122.5 -64.5v-4q45 -4 73.5 -18t42.5 -40.5t19.5 -52t11.5 -68.5q1 -12 2 -18q0 -3 4 -41t7 -55
t10.5 -44t17.5 -42h-195q-12 70 -28 207q-9 102 -64 104h-157zM233 410q0 -160 79 -295.5t213.5 -214t293.5 -78.5t293.5 78.5t213.5 214t79 295.5t-79 295.5t-213.5 213.5t-293.5 78t-293.5 -78t-213.5 -213.5t-79 -295.5zM819 -332q-151 0 -289 50.5t-245.5 143
t-171.5 235t-64 313.5q0 138 41.5 257.5t114.5 207t170.5 150.5t210.5 94.5t233 31.5q150 0 288 -50.5t245.5 -142.5t172 -234.5t64.5 -313.5t-64.5 -313.5t-172 -235t-245.5 -143t-288 -50.5z" />
    <glyph glyph-name="macron" unicode="&#xaf;" horiz-adv-x="569" 
d="M-70 971v151h709v-151h-709z" />
    <glyph glyph-name="degree" unicode="&#xb0;" horiz-adv-x="819" 
d="M88 829q0 133 94 227.5t228 94.5q133 0 227 -94t94 -228t-94 -228.5t-227 -94.5t-227.5 94.5t-94.5 228.5zM596 829q0 85 -52 142t-134 57t-134.5 -57t-52.5 -142t52.5 -142.5t134.5 -57.5t134 57.5t52 142.5z" />
    <glyph glyph-name="plusminus" unicode="&#xb1;" horiz-adv-x="1228" 
d="M492 512v319h245v-319h393v-246h-393v-307h-245v307h-394v246h394zM98 -434v246h1032v-246h-1032z" />
    <glyph glyph-name="twosuperior" unicode="&#xb2;" horiz-adv-x="716" 
d="M184 930l-164 96q24 41 38 61.5t44.5 54.5t60.5 51.5t78 31.5t105 14q148 0 232 -78t84 -186q0 -51 -15.5 -95t-48 -82.5t-64.5 -67t-83 -66.5q-15 -12 -62 -49.5t-63 -49.5q-33 -27 -43 -40t-17 -40h402v-166h-635q14 140 57 216t184 196q115 97 142 129q47 53 47 113
q0 51 -32 87t-91 36q-34 0 -61.5 -13.5t-42.5 -30.5t-27.5 -44t-16 -41.5t-8.5 -36.5z" />
    <glyph glyph-name="threesuperior" unicode="&#xb3;" horiz-adv-x="716" 
d="M25 297v158q72 -9 120 -9q130 0 231 48t101 129q0 33 -12.5 56.5t-32.5 35t-38.5 16t-37.5 4.5q-61 0 -127 -33l-59 119q118 52 174 88q84 52 84 113q0 33 -28 55.5t-68 22.5q-37 0 -69 -11t-58.5 -32.5t-41 -36.5t-34.5 -39l-98 119q62 62 138 100.5t185 38.5
q114 0 189 -49q78 -53 78 -139q0 -29 -6.5 -53.5t-21.5 -44.5t-25.5 -33t-34.5 -28.5t-32 -20t-32 -17.5v-6q120 -20 170 -94q35 -49 35 -111q0 -85 -42 -152.5t-112 -111.5q-144 -86 -395 -86q-68 0 -100 4z" />
    <glyph glyph-name="acute" unicode="&#xb4;" horiz-adv-x="569" 
d="M283 1204h317l-303 -297h-207z" />
    <glyph glyph-name="mu" unicode="&#xb5;" horiz-adv-x="1179" 
d="M825 -307v147h-4q-43 -78 -110.5 -125t-147.5 -47q-125 0 -194 99l-4 -5q10 -152 10 -168v-294h-287v1478h287v-682q0 -105 54.5 -168t154.5 -63q108 0 174.5 79.5t66.5 184.5v649h287v-1085h-287z" />
    <glyph glyph-name="paragraph" unicode="&#xb6;" horiz-adv-x="1269" 
d="M422 -629v957q-219 0 -338 120.5t-119 325.5q0 199 141 310.5t363 111.5h643v-1825h-246v1600h-198v-1600h-246z" />
    <glyph glyph-name="periodcentered" unicode="&#xb7;" horiz-adv-x="569" 
d="M119 367q0 66 48.5 114.5t117.5 48.5q67 0 116.5 -48.5t49.5 -114.5q0 -67 -49 -115.5t-117 -48.5q-70 0 -118 48.5t-48 115.5z" />
    <glyph glyph-name="cedilla" unicode="&#xb8;" horiz-adv-x="569" 
d="M10 -723l37 86q111 -33 158 -33q51 0 80.5 23t29.5 57q0 24 -11.5 40t-29.5 22.5t-30.5 9t-22.5 2.5q-28 0 -82 -16l-43 40l121 185h111l-88 -129q44 12 75 12q70 0 124.5 -42t54.5 -112q0 -64 -39 -110t-95.5 -66t-121.5 -20q-62 0 -104.5 10.5t-123.5 40.5z" />
    <glyph glyph-name="onesuperior" unicode="&#xb9;" horiz-adv-x="716" 
d="M92 319v146h189v608h-203v146h399v-754h178v-146h-563z" />
    <glyph glyph-name="ordmasculine" unicode="&#xba;" horiz-adv-x="819" 
d="M319 956v-127q0 -67 11 -104q14 -59 80 -59q63 0 76.5 43.5t13.5 189.5q0 34 -0.5 50.5t-2.5 43t-8 39.5t-15 28t-25 21t-37 6q-26 0 -44.5 -9.5t-28 -21.5t-14.5 -32.5t-5.5 -33.5t-0.5 -34zM131 889q0 28 0.5 44t2.5 47t6.5 50t14 47t22.5 45.5t34 38t47 32t62.5 19
t80.5 7.5q50 0 86 -5t82 -28.5t74 -67.5q45 -68 45 -244q0 -114 -13 -171.5t-63 -104.5q-22 -18 -35 -26.5t-57.5 -21.5t-101.5 -13q-115 0 -162 26q-29 15 -50.5 33.5t-35 43.5t-21.5 49t-12 60t-5 64.5t-1 75.5z" />
    <glyph glyph-name="guillemotright" unicode="&#xbb;" 
d="M80 565h256l258 -319l-264 -316h-258l264 316zM549 565h256l258 -319l-264 -316h-258l264 316z" />
    <glyph glyph-name="onequarter" unicode="&#xbc;" horiz-adv-x="2048" 
d="M1653 453l-246 -387h246v387zM1585 592h262v-526h82v-148h-82v-225h-194v225h-373v188zM135 319v146h189v608h-203v146h399v-754h178v-146h-563zM1440 1225h145l-874 -1581h-148z" />
    <glyph glyph-name="onehalf" unicode="&#xbd;" horiz-adv-x="2048" 
d="M90 319v146h189v608h-203v146h399v-754h178v-146h-563zM1368 1225h145l-874 -1581h-147zM1475 299l-164 96q25 41 38 61t44 55t60.5 52t77.5 31t105 14q148 0 232 -78t84 -186q0 -51 -15.5 -95t-48 -82.5t-64.5 -67t-83 -66.5q-15 -13 -62 -50t-63 -49q-33 -27 -43 -39.5
t-17 -39.5h402v-162h-635q10 94 29 150t67 115t146 142q114 97 142 129q46 54 46 113q0 51 -32 87t-91 36q-34 0 -61.5 -13.5t-42.5 -30t-27 -44.5t-15.5 -42t-8.5 -36z" />
    <glyph glyph-name="threequarters" unicode="&#xbe;" horiz-adv-x="2048" 
d="M1655 453l-246 -387h246v387zM1587 592h262v-526h82v-148h-82v-225h-194v225h-373v188zM1442 1225h145l-874 -1581h-148zM119 297v158q72 -9 121 -9q130 0 230.5 48t100.5 129q0 33 -12 56.5t-32 35t-38.5 16t-37.5 4.5q-61 0 -127 -33l-60 119q118 52 174 88
q84 52 84 113q0 33 -28 55.5t-68 22.5q-37 0 -69 -11t-58.5 -32.5t-41 -36.5t-34.5 -39l-98 119q139 139 324 139q113 0 188 -49q78 -53 78 -139q0 -29 -6.5 -53.5t-21.5 -44.5t-25.5 -33t-34.5 -28.5t-32 -20t-32 -17.5v-6q120 -20 170 -94q35 -49 35 -111
q0 -85 -42 -152.5t-112 -111.5q-144 -86 -395 -86q-68 0 -100 4z" />
    <glyph glyph-name="questiondown" unicode="&#xbf;" horiz-adv-x="1024" 
d="M428 260h254q0 -94 -7 -157.5t-28 -114t-39.5 -79.5t-60.5 -83q-17 -23 -51.5 -62t-53.5 -65q-34 -49 -34 -92q0 -58 34 -88.5t93 -30.5q101 0 163 170l254 -96q-24 -48 -42 -79.5t-56.5 -76t-81.5 -70.5t-113 -45.5t-155 -19.5q-181 0 -293 92q-100 84 -100 240
q0 129 149 278q51 51 70 72.5t45 57t33.5 65.5t13.5 75t6 109zM711 811v-322h-314v322h314z" />
    <glyph glyph-name="Agrave" unicode="&#xc0;" horiz-adv-x="1366" 
d="M850 248l-166 680h-8l-164 -680h338zM479 1196h400l434 -1503h-322l-76 299h-460l-78 -299h-322zM639 1622l192 -297h-206l-301 297h315z" />
    <glyph glyph-name="Aacute" unicode="&#xc1;" horiz-adv-x="1366" 
d="M850 248l-166 680h-8l-164 -680h338zM479 1196h400l434 -1503h-322l-76 299h-460l-78 -299h-322zM682 1622h317l-303 -297h-207z" />
    <glyph glyph-name="Acircumflex" unicode="&#xc2;" horiz-adv-x="1366" 
d="M850 248l-166 680h-8l-164 -680h338zM479 1196h400l434 -1503h-322l-76 299h-460l-78 -299h-322zM813 1622l234 -297h-232l-131 168l-129 -168h-233l235 297h256z" />
    <glyph glyph-name="Atilde" unicode="&#xc3;" horiz-adv-x="1366" 
d="M850 248l-166 680h-8l-164 -680h338zM479 1196h400l434 -1503h-322l-76 299h-460l-78 -299h-322zM651 1571l94 -35q62 -23 80 -23q82 0 101 86h133q-3 -27 -11 -56t-26 -64.5t-42.5 -62.5t-64.5 -45.5t-88 -18.5q-25 0 -47.5 5.5t-99.5 28.5l-80 25q-46 12 -70 12
q-73 0 -92 -84h-129q17 76 42.5 127.5t59 77t67 35.5t77.5 10q46 0 96 -18z" />
    <glyph glyph-name="Adieresis" unicode="&#xc4;" horiz-adv-x="1366" 
d="M850 248l-166 680h-8l-164 -680h338zM479 1196h400l434 -1503h-322l-76 299h-460l-78 -299h-322zM354 1343v238h260v-238h-260zM754 1343v238h260v-238h-260z" />
    <glyph glyph-name="Aring" unicode="&#xc5;" horiz-adv-x="1366" 
d="M850 248l-166 680h-8l-164 -680h338zM479 1196h400l434 -1503h-322l-76 299h-460l-78 -299h-322zM526 1462q0 66 47 113t113 47q67 0 114.5 -47t47.5 -113q0 -68 -47 -115t-115 -47q-66 0 -113 47.5t-47 114.5zM756 1464q0 29 -19.5 49.5t-48.5 20.5t-47 -20t-18 -50
t18 -50.5t47 -20.5t48.5 20.5t19.5 50.5z" />
    <glyph glyph-name="AE" unicode="&#xc6;" horiz-adv-x="2048" 
d="M961 285v671h-87l-288 -671h375zM1929 -307h-968v336h-488l-141 -336h-328l680 1503h1202v-268h-612v-336h395v-266h-395v-361h655v-272z" />
    <glyph glyph-name="Ccedilla" unicode="&#xc7;" horiz-adv-x="1366" 
d="M854 205h332q-2 -102 -15 -185q-7 -35 -13 -55.5t-22.5 -61t-47 -78.5t-74.5 -73q-70 -56 -162 -78t-166 -22q-12 0 -16 2l-62 -90q44 12 76 12q70 0 124 -42t54 -112q0 -64 -39 -110t-95.5 -66t-121.5 -20q-62 0 -104 10.5t-123 40.5l37 86q111 -33 157 -33q51 0 81 23
t30 57q0 24 -11.5 40t-29.5 22.5t-30.5 9t-22.5 2.5q-28 0 -82 -16l-43 40l100 154q-159 17 -268 123q-30 29 -49 54.5t-43 76.5t-36.5 132t-12.5 190v452q0 260 136.5 399.5t397.5 139.5q202 0 330 -101q48 -38 80.5 -90t47.5 -112t20.5 -106.5t7.5 -102.5h-330
q-1 23 -1.5 37t-4.5 42t-10 46t-19 41.5t-30 37t-44 23.5t-61 10q-75 0 -125 -47q-55 -51 -55 -164v-571q0 -25 0.5 -39.5t4 -43t10 -47t19.5 -41.5t32 -36.5t48.5 -23t67.5 -9.5q96 0 136 71t40 202z" />
    <glyph glyph-name="Egrave" unicode="&#xc8;" horiz-adv-x="1366" 
d="M180 -307v1503h1010v-274h-682v-320h469v-274h-465v-355h725v-280h-1057zM639 1622l192 -297h-206l-301 297h315z" />
    <glyph glyph-name="Eacute" unicode="&#xc9;" horiz-adv-x="1366" 
d="M180 -307v1503h1010v-274h-682v-320h469v-274h-465v-355h725v-280h-1057zM682 1622h317l-303 -297h-207z" />
    <glyph glyph-name="Ecircumflex" unicode="&#xca;" horiz-adv-x="1366" 
d="M180 -307v1503h1010v-274h-682v-320h469v-274h-465v-355h725v-280h-1057zM813 1622l234 -297h-232l-131 168l-129 -168h-233l235 297h256z" />
    <glyph glyph-name="Edieresis" unicode="&#xcb;" horiz-adv-x="1366" 
d="M180 -307v1503h1010v-274h-682v-320h469v-274h-465v-355h725v-280h-1057zM354 1343v238h260v-238h-260zM754 1343v238h260v-238h-260z" />
    <glyph glyph-name="Igrave" unicode="&#xcc;" horiz-adv-x="796" 
d="M741 -307h-686v133h176v1239h-176v131h686v-131h-178v-1235h178v-137zM354 1622l193 -297h-207l-301 297h315z" />
    <glyph glyph-name="Iacute" unicode="&#xcd;" horiz-adv-x="796" 
d="M741 -307h-686v133h176v1239h-176v131h686v-131h-178v-1235h178v-137zM397 1622h318l-303 -297h-207z" />
    <glyph glyph-name="Icircumflex" unicode="&#xce;" horiz-adv-x="796" 
d="M741 -307h-686v133h176v1239h-176v131h686v-131h-178v-1235h178v-137zM528 1622l234 -297h-232l-131 168l-129 -168h-233l235 297h256z" />
    <glyph glyph-name="Idieresis" unicode="&#xcf;" horiz-adv-x="796" 
d="M741 -307h-686v133h176v1239h-176v131h686v-131h-178v-1235h178v-137zM70 1343v238h260v-238h-260zM469 1343v238h260v-238h-260z" />
    <glyph glyph-name="Eth" unicode="&#xd0;" horiz-adv-x="1366" 
d="M651 586v-209h-149v-416h94q47 0 80 4.5t71 22.5t61.5 50.5t39.5 92t16 143.5q0 25 2 92.5t2 92.5q0 158 -10 243t-45 136q-44 64 -102.5 78t-208.5 14v-344h149zM166 377h-166v209h166v610h364q178 0 295 -24t179 -64t108 -107q51 -75 70.5 -183.5t19.5 -354.5l-2 -256
q0 -329 -207 -434q-75 -38 -144.5 -52.5t-176.5 -23.5q-43 -4 -506 -4v684z" />
    <glyph glyph-name="Ntilde" unicode="&#xd1;" horiz-adv-x="1478" 
d="M197 -307v1503h315l387 -702q36 -69 51 -103q2 -5 16 -38.5t17 -39.5h10l-8 152q-6 102 -6 172v559h303v-1503h-270l-400 729q-9 16 -15 27.5t-11 21.5t-14 30t-15.5 35.5t-24 57t-32.5 76.5h-11q11 -237 11 -273v-704h-303zM707 1571l94 -35q62 -23 80 -23q81 0 100 86
h133q-4 -27 -11.5 -56t-25.5 -64.5t-42 -62.5t-64 -45.5t-88 -18.5q-25 0 -48 5.5t-100 28.5l-80 25q-46 12 -69 12q-73 0 -92 -84h-129q17 76 42.5 127.5t58.5 77t66.5 35.5t77.5 10q47 0 97 -18z" />
    <glyph glyph-name="Ograve" unicode="&#xd2;" horiz-adv-x="1366" 
d="M502 717v-522q0 -64 7.5 -110t26 -84t54.5 -57.5t90 -19.5q37 0 66 10.5t47.5 24.5t31.5 39.5t19 45.5t9.5 52.5t4 50t0.5 48.5v522q0 30 -0.5 46t-3.5 44.5t-9.5 44.5t-19 37t-30.5 32t-46.5 19t-64.5 8q-182 0 -182 -231zM166 262v404q0 270 131 415q130 144 377 144
q261 0 395 -146q66 -70 98.5 -180t32.5 -285v-364q0 -161 -30 -267.5t-99 -181.5q-138 -149 -401 -149q-49 0 -98 7t-107 28t-106 54t-90 89t-64 129q-39 125 -39 303zM639 1622l192 -297h-206l-301 297h315z" />
    <glyph glyph-name="Oacute" unicode="&#xd3;" horiz-adv-x="1366" 
d="M502 717v-522q0 -64 7.5 -110t26 -84t54.5 -57.5t90 -19.5q37 0 66 10.5t47.5 24.5t31.5 39.5t19 45.5t9.5 52.5t4 50t0.5 48.5v522q0 30 -0.5 46t-3.5 44.5t-9.5 44.5t-19 37t-30.5 32t-46.5 19t-64.5 8q-182 0 -182 -231zM166 262v404q0 270 131 415q130 144 377 144
q261 0 395 -146q66 -70 98.5 -180t32.5 -285v-364q0 -161 -30 -267.5t-99 -181.5q-138 -149 -401 -149q-49 0 -98 7t-107 28t-106 54t-90 89t-64 129q-39 125 -39 303zM682 1622h317l-303 -297h-207z" />
    <glyph glyph-name="Ocircumflex" unicode="&#xd4;" horiz-adv-x="1366" 
d="M502 717v-522q0 -64 7.5 -110t26 -84t54.5 -57.5t90 -19.5q37 0 66 10.5t47.5 24.5t31.5 39.5t19 45.5t9.5 52.5t4 50t0.5 48.5v522q0 30 -0.5 46t-3.5 44.5t-9.5 44.5t-19 37t-30.5 32t-46.5 19t-64.5 8q-182 0 -182 -231zM166 262v404q0 270 131 415q130 144 377 144
q261 0 395 -146q66 -70 98.5 -180t32.5 -285v-364q0 -161 -30 -267.5t-99 -181.5q-138 -149 -401 -149q-49 0 -98 7t-107 28t-106 54t-90 89t-64 129q-39 125 -39 303zM813 1622l234 -297h-232l-131 168l-129 -168h-233l235 297h256z" />
    <glyph glyph-name="Otilde" unicode="&#xd5;" horiz-adv-x="1366" 
d="M502 717v-522q0 -64 7.5 -110t26 -84t54.5 -57.5t90 -19.5q37 0 66 10.5t47.5 24.5t31.5 39.5t19 45.5t9.5 52.5t4 50t0.5 48.5v522q0 30 -0.5 46t-3.5 44.5t-9.5 44.5t-19 37t-30.5 32t-46.5 19t-64.5 8q-182 0 -182 -231zM166 262v404q0 270 131 415q130 144 377 144
q261 0 395 -146q66 -70 98.5 -180t32.5 -285v-364q0 -161 -30 -267.5t-99 -181.5q-138 -149 -401 -149q-49 0 -98 7t-107 28t-106 54t-90 89t-64 129q-39 125 -39 303zM651 1571l94 -35q62 -23 80 -23q82 0 101 86h133q-3 -27 -11 -56t-26 -64.5t-42.5 -62.5t-64.5 -45.5
t-88 -18.5q-25 0 -47.5 5.5t-99.5 28.5l-80 25q-46 12 -70 12q-73 0 -92 -84h-129q17 76 42.5 127.5t59 77t67 35.5t77.5 10q46 0 96 -18z" />
    <glyph glyph-name="Odieresis" unicode="&#xd6;" horiz-adv-x="1366" 
d="M502 717v-522q0 -64 7.5 -110t26 -84t54.5 -57.5t90 -19.5q37 0 66 10.5t47.5 24.5t31.5 39.5t19 45.5t9.5 52.5t4 50t0.5 48.5v522q0 30 -0.5 46t-3.5 44.5t-9.5 44.5t-19 37t-30.5 32t-46.5 19t-64.5 8q-182 0 -182 -231zM166 262v404q0 270 131 415q130 144 377 144
q261 0 395 -146q66 -70 98.5 -180t32.5 -285v-364q0 -161 -30 -267.5t-99 -181.5q-138 -149 -401 -149q-49 0 -98 7t-107 28t-106 54t-90 89t-64 129q-39 125 -39 303zM354 1343v238h260v-238h-260zM754 1343v238h260v-238h-260z" />
    <glyph glyph-name="multiply" unicode="&#xd7;" horiz-adv-x="1228" 
d="M446 211l-325 326l168 168l325 -326l326 326l168 -168l-328 -326l328 -326l-168 -168l-326 328l-325 -328l-168 168z" />
    <glyph glyph-name="Oslash" unicode="&#xd8;" horiz-adv-x="1366" 
d="M858 573l-332 -548q37 -101 154 -101q37 0 66 10.5t47.5 24.5t31.5 39.5t19 45.5t9.5 52.5t4 50t0.5 48.5v378zM502 717v-414l336 567q-38 78 -154 78q-182 0 -182 -231zM1313 1305l-185 -310q72 -132 72 -381v-364q0 -161 -30 -267.5t-99 -181.5q-138 -149 -401 -149
q-171 0 -293 80l-139 -236h-236l234 389q-21 40 -31 74q-39 125 -39 303v404q0 270 131 415q130 144 377 144q189 0 313 -76l92 156h234z" />
    <glyph glyph-name="Ugrave" unicode="&#xd9;" horiz-adv-x="1478" 
d="M195 223v973h342v-991q0 -28 0.5 -44.5t4 -49.5t11 -53.5t22 -48t35.5 -43t54 -27t75 -11.5q19 0 32 0.5t37 6t41 15.5t37.5 30t33 48.5t21.5 73.5t9 101v993h334v-995q0 -305 -156 -432q-142 -115 -370 -115q-125 0 -235.5 31.5t-176.5 93.5q-52 49 -84.5 105.5t-46 120
t-17 108.5t-3.5 110zM694 1622l193 -297h-207l-301 297h315z" />
    <glyph glyph-name="Uacute" unicode="&#xda;" horiz-adv-x="1478" 
d="M195 223v973h342v-991q0 -28 0.5 -44.5t4 -49.5t11 -53.5t22 -48t35.5 -43t54 -27t75 -11.5q19 0 32 0.5t37 6t41 15.5t37.5 30t33 48.5t21.5 73.5t9 101v993h334v-995q0 -305 -156 -432q-142 -115 -370 -115q-125 0 -235.5 31.5t-176.5 93.5q-52 49 -84.5 105.5t-46 120
t-17 108.5t-3.5 110zM737 1622h318l-303 -297h-207z" />
    <glyph glyph-name="Ucircumflex" unicode="&#xdb;" horiz-adv-x="1478" 
d="M195 223v973h342v-991q0 -28 0.5 -44.5t4 -49.5t11 -53.5t22 -48t35.5 -43t54 -27t75 -11.5q19 0 32 0.5t37 6t41 15.5t37.5 30t33 48.5t21.5 73.5t9 101v993h334v-995q0 -305 -156 -432q-142 -115 -370 -115q-125 0 -235.5 31.5t-176.5 93.5q-52 49 -84.5 105.5t-46 120
t-17 108.5t-3.5 110zM868 1622l234 -297h-232l-131 168l-129 -168h-233l235 297h256z" />
    <glyph glyph-name="Udieresis" unicode="&#xdc;" horiz-adv-x="1478" 
d="M195 223v973h342v-991q0 -28 0.5 -44.5t4 -49.5t11 -53.5t22 -48t35.5 -43t54 -27t75 -11.5q19 0 32 0.5t37 6t41 15.5t37.5 30t33 48.5t21.5 73.5t9 101v993h334v-995q0 -305 -156 -432q-142 -115 -370 -115q-125 0 -235.5 31.5t-176.5 93.5q-52 49 -84.5 105.5t-46 120
t-17 108.5t-3.5 110zM410 1343v238h260v-238h-260zM809 1343v238h260v-238h-260z" />
    <glyph glyph-name="Yacute" unicode="&#xdd;" horiz-adv-x="1366" 
d="M860 -307h-332v594l-475 909h355l190 -375q53 -110 86 -184h10q13 29 86 180l183 379h350l-453 -897v-606zM682 1622h317l-303 -297h-207z" />
    <glyph glyph-name="Thorn" unicode="&#xde;" horiz-adv-x="1366" 
d="M512 641v-440q206 -5 256 16q15 6 30.5 16.5t38.5 33t37.5 64t14.5 95.5q0 55 -9.5 93.5t-28 58.5t-31 27.5t-32.5 15.5q-38 15 -79.5 17.5t-196.5 2.5zM512 -51v-256h-332v1503h332v-307h164q288 0 420 -119q137 -122 137 -354q0 -82 -20.5 -151t-53.5 -114.5t-62.5 -73
t-60.5 -46.5q-73 -44 -169.5 -59t-235.5 -19z" />
    <glyph glyph-name="germandbls" unicode="&#xdf;" horiz-adv-x="1251" 
d="M172 -307v1005q0 100 9.5 173.5t37 141t73.5 109t121 66t179 24.5q238 0 346 -125q31 -36 50.5 -75t27 -79t9 -63t1.5 -57q0 -59 -15 -109.5t-37 -81.5t-48.5 -54.5t-46.5 -33.5t-35 -14v-8q143 -29 196 -117q29 -44 43.5 -121.5t14.5 -158.5q0 -313 -154 -396
q-31 -17 -87 -29t-93 -12q-42 0 -158 19v209q47 -19 78 -19q30 0 52 8.5t35 26.5t20.5 34t11 44t4 44t0.5 44q0 118 -1.5 147.5t-8.5 53.5q-12 36 -31 59t-48.5 33t-49 13t-56.5 5v199q33 1 55 8.5t40 28t26 58.5t8 98q0 30 -1.5 51.5t-8.5 54.5t-20 54t-39.5 37t-63.5 16
q-40 0 -68.5 -15t-42 -33.5t-21 -48.5t-8.5 -46.5t-1 -41.5v-1126h-295z" />
    <glyph glyph-name="agrave" unicode="&#xe0;" horiz-adv-x="1024" 
d="M197 494l-136 168q45 35 73.5 54t79.5 43t115.5 35t147.5 11q79 0 173.5 -24.5t152.5 -82.5q38 -38 57.5 -83.5t22 -71t2.5 -66.5v-532q0 -7 3.5 -20t19 -30t40.5 -18v-196h-84q-149 0 -223 135h-8q-30 -38 -50 -58t-51 -39q-96 -55 -188 -55q-49 0 -95 14t-92.5 46
t-75 96t-28.5 153q0 43 9.5 85.5t33 92.5t72.5 95.5t119 77.5q143 64 311 75q0 87 -3 116.5t-17 49.5q-14 21 -46.5 34t-72.5 13q-44 0 -83.5 -10t-74 -31t-54.5 -36t-50 -41zM596 80v168q-270 -51 -270 -238q0 -57 31.5 -95t82.5 -38q46 0 79 21t48.5 54.5t22 64.5t6.5 63z
M467 1204l192 -297h-206l-301 297h315z" />
    <glyph glyph-name="aacute" unicode="&#xe1;" horiz-adv-x="1024" 
d="M197 494l-136 168q45 35 73.5 54t79.5 43t115.5 35t147.5 11q79 0 173.5 -24.5t152.5 -82.5q38 -38 57.5 -83.5t22 -71t2.5 -66.5v-532q0 -7 3.5 -20t19 -30t40.5 -18v-196h-84q-149 0 -223 135h-8q-30 -38 -50 -58t-51 -39q-96 -55 -188 -55q-49 0 -95 14t-92.5 46
t-75 96t-28.5 153q0 43 9.5 85.5t33 92.5t72.5 95.5t119 77.5q143 64 311 75q0 87 -3 116.5t-17 49.5q-14 21 -46.5 34t-72.5 13q-44 0 -83.5 -10t-74 -31t-54.5 -36t-50 -41zM596 80v168q-270 -51 -270 -238q0 -57 31.5 -95t82.5 -38q46 0 79 21t48.5 54.5t22 64.5t6.5 63z
M510 1204h317l-303 -297h-207z" />
    <glyph glyph-name="acircumflex" unicode="&#xe2;" horiz-adv-x="1024" 
d="M197 494l-136 168q45 35 73.5 54t79.5 43t115.5 35t147.5 11q79 0 173.5 -24.5t152.5 -82.5q38 -38 57.5 -83.5t22 -71t2.5 -66.5v-532q0 -7 3.5 -20t19 -30t40.5 -18v-196h-84q-149 0 -223 135h-8q-30 -38 -50 -58t-51 -39q-96 -55 -188 -55q-49 0 -95 14t-92.5 46
t-75 96t-28.5 153q0 43 9.5 85.5t33 92.5t72.5 95.5t119 77.5q143 64 311 75q0 87 -3 116.5t-17 49.5q-14 21 -46.5 34t-72.5 13q-44 0 -83.5 -10t-74 -31t-54.5 -36t-50 -41zM596 80v168q-270 -51 -270 -238q0 -57 31.5 -95t82.5 -38q46 0 79 21t48.5 54.5t22 64.5t6.5 63z
M641 1204l233 -297h-231l-131 168l-129 -168h-233l235 297h256z" />
    <glyph glyph-name="atilde" unicode="&#xe3;" horiz-adv-x="1024" 
d="M197 494l-136 168q45 35 73.5 54t79.5 43t115.5 35t147.5 11q79 0 173.5 -24.5t152.5 -82.5q38 -38 57.5 -83.5t22 -71t2.5 -66.5v-532q0 -7 3.5 -20t19 -30t40.5 -18v-196h-84q-149 0 -223 135h-8q-30 -38 -50 -58t-51 -39q-96 -55 -188 -55q-49 0 -95 14t-92.5 46
t-75 96t-28.5 153q0 43 9.5 85.5t33 92.5t72.5 95.5t119 77.5q143 64 311 75q0 87 -3 116.5t-17 49.5q-14 21 -46.5 34t-72.5 13q-44 0 -83.5 -10t-74 -31t-54.5 -36t-50 -41zM596 80v168q-270 -51 -270 -238q0 -57 31.5 -95t82.5 -38q46 0 79 21t48.5 54.5t22 64.5t6.5 63z
M479 1153l94 -35q59 -22 80 -22q82 0 101 86h133q-3 -27 -11 -56t-26 -64.5t-42.5 -63t-64.5 -46t-88 -18.5q-24 0 -45 5t-102 30l-80 24q-50 13 -70 13q-73 0 -92 -84h-129q17 76 42.5 127.5t59 77t67 35t77.5 9.5q46 0 96 -18z" />
    <glyph glyph-name="adieresis" unicode="&#xe4;" horiz-adv-x="1024" 
d="M197 494l-136 168q45 35 73.5 54t79.5 43t115.5 35t147.5 11q79 0 173.5 -24.5t152.5 -82.5q38 -38 57.5 -83.5t22 -71t2.5 -66.5v-532q0 -7 3.5 -20t19 -30t40.5 -18v-196h-84q-149 0 -223 135h-8q-30 -38 -50 -58t-51 -39q-96 -55 -188 -55q-49 0 -95 14t-92.5 46
t-75 96t-28.5 153q0 43 9.5 85.5t33 92.5t72.5 95.5t119 77.5q143 64 311 75q0 87 -3 116.5t-17 49.5q-14 21 -46.5 34t-72.5 13q-44 0 -83.5 -10t-74 -31t-54.5 -36t-50 -41zM596 80v168q-270 -51 -270 -238q0 -57 31.5 -95t82.5 -38q46 0 79 21t48.5 54.5t22 64.5t6.5 63z
M182 926v237h260v-237h-260zM582 926v237h260v-237h-260z" />
    <glyph glyph-name="aring" unicode="&#xe5;" horiz-adv-x="1024" 
d="M197 494l-136 168q45 35 73.5 54t79.5 43t115.5 35t147.5 11q79 0 173.5 -24.5t152.5 -82.5q38 -38 57.5 -83.5t22 -71t2.5 -66.5v-532q0 -7 3.5 -20t19 -30t40.5 -18v-196h-84q-149 0 -223 135h-8q-30 -38 -50 -58t-51 -39q-96 -55 -188 -55q-49 0 -95 14t-92.5 46
t-75 96t-28.5 153q0 43 9.5 85.5t33 92.5t72.5 95.5t119 77.5q143 64 311 75q0 87 -3 116.5t-17 49.5q-14 21 -46.5 34t-72.5 13q-44 0 -83.5 -10t-74 -31t-54.5 -36t-50 -41zM596 80v168q-270 -51 -270 -238q0 -57 31.5 -95t82.5 -38q46 0 79 21t48.5 54.5t22 64.5t6.5 63z
M354 1044q0 66 47 113t113 47q67 0 114.5 -47t47.5 -113q0 -67 -47 -114t-115 -47q-66 0 -113 47t-47 114zM584 1047q0 29 -19.5 49t-48.5 20t-47 -19.5t-18 -49.5t18 -51t47 -21t48.5 21t19.5 51z" />
    <glyph glyph-name="ae" unicode="&#xe6;" horiz-adv-x="1593" 
d="M1419 -51l33 -215q-168 -68 -342 -68q-14 0 -33 1t-67.5 10.5t-90 26t-86 52t-69.5 84.5h-12q-170 -174 -361 -174q-152 0 -231.5 81.5t-79.5 236.5q0 168 149 284q74 57 171 85t253 42v92q0 35 -16.5 60t-43.5 37.5t-53.5 18t-54.5 5.5q-57 0 -107 -17.5t-77.5 -36
t-71.5 -54.5l-133 162q35 25 62 41.5t79 43t112 40.5t122 14q96 0 171 -26.5t153 -86.5h14q52 41 80 59t78.5 33t115.5 15q60 0 110 -13t85.5 -33t64 -52.5t46.5 -62.5t30.5 -73t19 -73.5t9.5 -74.5t3.5 -65.5t0.5 -56.5q0 -58 4 -119h-547q-11 -303 238 -303q138 0 272 80z
M647 78l2 166q-75 -8 -131.5 -30.5t-86 -48t-48 -56.5t-23 -52t-4.5 -39q0 -42 12.5 -72t33 -44.5t41.5 -20.5t44 -6q79 0 118.5 62t41.5 141zM909 328h297q0 114 -3 145t-17 64q-34 77 -129 77q-37 0 -64 -12.5t-42.5 -34t-25.5 -50t-12.5 -60t-4 -65t0.5 -64.5z" />
    <glyph glyph-name="ccedilla" unicode="&#xe7;" horiz-adv-x="1024" 
d="M653 43h246q-1 -28 -2 -42.5t-5 -49.5t-10.5 -56.5t-20.5 -55t-32 -55t-46.5 -46.5t-64 -39.5t-85.5 -24.5t-109 -10h-10l-70 -100q44 12 76 12q70 0 124 -42t54 -112q0 -64 -39 -110t-95.5 -66t-121.5 -20q-62 0 -104 10.5t-123 40.5l37 86q111 -33 158 -33
q51 0 80.5 23t29.5 57q0 24 -11.5 40t-29.5 22.5t-30.5 9t-22.5 2.5q-28 0 -82 -16l-43 40l109 166q-108 11 -179 80q-127 114 -127 346v256q0 99 21 178t65.5 142t122.5 97t185 34q37 0 66 -2.5t76.5 -12.5t90.5 -36.5t76 -67.5q24 -29 39 -59t21 -65t7.5 -52t2.5 -55h-232
q-2 26 -6 44t-15.5 38t-35.5 30.5t-60 10.5q-38 0 -65.5 -15t-40.5 -33.5t-20 -50t-8 -48.5t-1 -44v-317q0 -104 29 -144.5t110 -40.5q121 0 121 156z" />
    <glyph glyph-name="egrave" unicode="&#xe8;" horiz-adv-x="1024" 
d="M879 176h-514q1 -24 0 -51.5t3.5 -56t10.5 -56t21 -51.5t35.5 -42.5t53 -29t74.5 -10.5q68 0 131.5 17t157.5 63l31 -217q-75 -26 -111 -37.5t-101 -23t-132 -11.5q-344 0 -418 279q-9 36 -15.5 89.5t-9 86t-2.5 41.5q0 94 1.5 143.5t7.5 122.5t22.5 126.5t42.5 96.5
q93 154 332 154q83 0 147.5 -23t100 -54.5t65.5 -76.5q46 -67 56 -155t10 -324zM365 338h276q0 52 -1 79.5t-5 67t-13 60.5t-24.5 42.5t-41 30.5t-60.5 9q-39 0 -65.5 -17t-39.5 -45.5t-20 -65.5t-6.5 -78t0.5 -83zM467 1204l192 -297h-206l-301 297h315z" />
    <glyph glyph-name="eacute" unicode="&#xe9;" horiz-adv-x="1024" 
d="M879 176h-514q1 -24 0 -51.5t3.5 -56t10.5 -56t21 -51.5t35.5 -42.5t53 -29t74.5 -10.5q68 0 131.5 17t157.5 63l31 -217q-75 -26 -111 -37.5t-101 -23t-132 -11.5q-344 0 -418 279q-9 36 -15.5 89.5t-9 86t-2.5 41.5q0 94 1.5 143.5t7.5 122.5t22.5 126.5t42.5 96.5
q93 154 332 154q83 0 147.5 -23t100 -54.5t65.5 -76.5q46 -67 56 -155t10 -324zM365 338h276q0 52 -1 79.5t-5 67t-13 60.5t-24.5 42.5t-41 30.5t-60.5 9q-39 0 -65.5 -17t-39.5 -45.5t-20 -65.5t-6.5 -78t0.5 -83zM510 1204h317l-303 -297h-207z" />
    <glyph glyph-name="ecircumflex" unicode="&#xea;" horiz-adv-x="1024" 
d="M879 176h-514q1 -24 0 -51.5t3.5 -56t10.5 -56t21 -51.5t35.5 -42.5t53 -29t74.5 -10.5q68 0 131.5 17t157.5 63l31 -217q-75 -26 -111 -37.5t-101 -23t-132 -11.5q-344 0 -418 279q-9 36 -15.5 89.5t-9 86t-2.5 41.5q0 94 1.5 143.5t7.5 122.5t22.5 126.5t42.5 96.5
q93 154 332 154q83 0 147.5 -23t100 -54.5t65.5 -76.5q46 -67 56 -155t10 -324zM365 338h276q0 52 -1 79.5t-5 67t-13 60.5t-24.5 42.5t-41 30.5t-60.5 9q-39 0 -65.5 -17t-39.5 -45.5t-20 -65.5t-6.5 -78t0.5 -83zM641 1204l233 -297h-231l-131 168l-129 -168h-233l235 297
h256z" />
    <glyph glyph-name="edieresis" unicode="&#xeb;" horiz-adv-x="1024" 
d="M879 176h-514q1 -24 0 -51.5t3.5 -56t10.5 -56t21 -51.5t35.5 -42.5t53 -29t74.5 -10.5q68 0 131.5 17t157.5 63l31 -217q-75 -26 -111 -37.5t-101 -23t-132 -11.5q-344 0 -418 279q-9 36 -15.5 89.5t-9 86t-2.5 41.5q0 94 1.5 143.5t7.5 122.5t22.5 126.5t42.5 96.5
q93 154 332 154q83 0 147.5 -23t100 -54.5t65.5 -76.5q46 -67 56 -155t10 -324zM365 338h276q0 52 -1 79.5t-5 67t-13 60.5t-24.5 42.5t-41 30.5t-60.5 9q-39 0 -65.5 -17t-39.5 -45.5t-20 -65.5t-6.5 -78t0.5 -83zM182 926v237h260v-237h-260zM582 926v237h260v-237h-260z
" />
    <glyph glyph-name="igrave" unicode="&#xec;" horiz-adv-x="569" 
d="M143 -307v1085h283v-1085h-283zM240 1204l192 -297h-207l-301 297h316z" />
    <glyph glyph-name="iacute" unicode="&#xed;" horiz-adv-x="569" 
d="M143 -307v1085h283v-1085h-283zM283 1204h317l-303 -297h-207z" />
    <glyph glyph-name="icircumflex" unicode="&#xee;" horiz-adv-x="569" 
d="M143 -307v1085h283v-1085h-283zM414 1204l233 -297h-231l-131 168l-129 -168h-234l236 297h256z" />
    <glyph glyph-name="idieresis" unicode="&#xef;" horiz-adv-x="569" 
d="M143 -307v1085h283v-1085h-283zM-45 926v237h260v-237h-260zM354 926v237h260v-237h-260z" />
    <glyph glyph-name="eth" unicode="&#xf0;" 
d="M432 377v-213q0 -113 14 -174q23 -99 125 -99q96 0 117 73.5t21 316.5q0 47 -0.5 72t-3 64t-7.5 59.5t-15 47t-24 39t-36 22t-50 9.5q-40 0 -68.5 -15.5t-42 -35.5t-21 -55t-8.5 -55t-1 -56zM440 1214l183 76q51 -48 94 -110l170 75l76 -135l-152 -65
q109 -179 147.5 -378.5t38.5 -436.5q0 -81 -1 -124.5t-7 -100.5t-18 -92t-34.5 -73t-55.5 -71q-18 -17 -27 -25t-37 -25.5t-56 -27t-75 -17.5t-102 -8q-173 0 -250 43q-45 25 -77.5 56.5t-53.5 73t-33.5 81.5t-19 99.5t-8 108.5t-1.5 126q0 44 0.5 72.5t4 76t10.5 80t20 75
t31 71.5t46.5 60t64.5 49.5t85.5 30.5t108.5 12q104 0 174 -64l14 6q-22 109 -92 238l-162 -66l-75 129l164 70q-36 57 -95 110z" />
    <glyph glyph-name="ntilde" unicode="&#xf1;" 
d="M141 -307v1085h267v-200h6q53 98 132 160.5t179 62.5q56 0 101 -14t73 -33.5t48.5 -51t30 -57t15 -61.5t6 -53.5t0.5 -43.5v-794h-288v708q0 20 -0.5 32.5t-5.5 37.5t-14 39.5t-28.5 26.5t-46.5 12q-29 0 -54.5 -8t-50.5 -27.5t-39 -33.5t-42 -44v-743h-289zM537 1153
l94 -35q59 -22 80 -22q81 0 100 86h133q-4 -27 -11.5 -56t-25.5 -64.5t-42 -63t-64 -46t-88 -18.5q-24 0 -46 5.5t-102 29.5l-80 24q-50 13 -69 13q-73 0 -92 -84h-129q17 76 42.5 127.5t58.5 77t66.5 35t77.5 9.5q47 0 97 -18z" />
    <glyph glyph-name="ograve" unicode="&#xf2;" 
d="M432 377v-213q0 -113 14 -174q23 -99 125 -99q96 0 117 73.5t21 316.5q0 47 -0.5 72t-3 64t-7.5 59.5t-15 47t-24 39t-36 22t-50 9.5q-40 0 -68.5 -15.5t-42 -35.5t-21 -55t-8.5 -55t-1 -56zM141 264q0 47 0.5 73.5t4 77.5t10.5 82.5t21.5 78t34.5 76t52 62.5t72.5 52
t96.5 32t124 13q57 0 98 -4.5t95.5 -19.5t100 -51t79.5 -91q38 -63 52.5 -157t14.5 -248q0 -81 -1 -124.5t-7 -100.5t-18 -92t-34.5 -73t-55.5 -71q-18 -17 -27 -25t-37 -25.5t-56 -27t-75 -17.5t-102 -8q-173 0 -250 43q-45 25 -77.5 56.5t-53.5 73t-33.5 81.5t-19 99.5
t-8 108.5t-1.5 126zM524 1204l193 -297h-207l-301 297h315z" />
    <glyph glyph-name="oacute" unicode="&#xf3;" 
d="M432 377v-213q0 -113 14 -174q23 -99 125 -99q96 0 117 73.5t21 316.5q0 47 -0.5 72t-3 64t-7.5 59.5t-15 47t-24 39t-36 22t-50 9.5q-40 0 -68.5 -15.5t-42 -35.5t-21 -55t-8.5 -55t-1 -56zM141 264q0 47 0.5 73.5t4 77.5t10.5 82.5t21.5 78t34.5 76t52 62.5t72.5 52
t96.5 32t124 13q57 0 98 -4.5t95.5 -19.5t100 -51t79.5 -91q38 -63 52.5 -157t14.5 -248q0 -81 -1 -124.5t-7 -100.5t-18 -92t-34.5 -73t-55.5 -71q-18 -17 -27 -25t-37 -25.5t-56 -27t-75 -17.5t-102 -8q-173 0 -250 43q-45 25 -77.5 56.5t-53.5 73t-33.5 81.5t-19 99.5
t-8 108.5t-1.5 126zM567 1204h318l-303 -297h-207z" />
    <glyph glyph-name="ocircumflex" unicode="&#xf4;" 
d="M432 377v-213q0 -113 14 -174q23 -99 125 -99q96 0 117 73.5t21 316.5q0 47 -0.5 72t-3 64t-7.5 59.5t-15 47t-24 39t-36 22t-50 9.5q-40 0 -68.5 -15.5t-42 -35.5t-21 -55t-8.5 -55t-1 -56zM141 264q0 47 0.5 73.5t4 77.5t10.5 82.5t21.5 78t34.5 76t52 62.5t72.5 52
t96.5 32t124 13q57 0 98 -4.5t95.5 -19.5t100 -51t79.5 -91q38 -63 52.5 -157t14.5 -248q0 -81 -1 -124.5t-7 -100.5t-18 -92t-34.5 -73t-55.5 -71q-18 -17 -27 -25t-37 -25.5t-56 -27t-75 -17.5t-102 -8q-173 0 -250 43q-45 25 -77.5 56.5t-53.5 73t-33.5 81.5t-19 99.5
t-8 108.5t-1.5 126zM698 1204l234 -297h-232l-131 168l-129 -168h-233l235 297h256z" />
    <glyph glyph-name="otilde" unicode="&#xf5;" 
d="M432 377v-213q0 -113 14 -174q23 -99 125 -99q96 0 117 73.5t21 316.5q0 47 -0.5 72t-3 64t-7.5 59.5t-15 47t-24 39t-36 22t-50 9.5q-40 0 -68.5 -15.5t-42 -35.5t-21 -55t-8.5 -55t-1 -56zM141 264q0 47 0.5 73.5t4 77.5t10.5 82.5t21.5 78t34.5 76t52 62.5t72.5 52
t96.5 32t124 13q57 0 98 -4.5t95.5 -19.5t100 -51t79.5 -91q38 -63 52.5 -157t14.5 -248q0 -81 -1 -124.5t-7 -100.5t-18 -92t-34.5 -73t-55.5 -71q-18 -17 -27 -25t-37 -25.5t-56 -27t-75 -17.5t-102 -8q-173 0 -250 43q-45 25 -77.5 56.5t-53.5 73t-33.5 81.5t-19 99.5
t-8 108.5t-1.5 126zM537 1153l94 -35q59 -22 80 -22q81 0 100 86h133q-4 -27 -11.5 -56t-25.5 -64.5t-42 -63t-64 -46t-88 -18.5q-24 0 -46 5.5t-102 29.5l-80 24q-50 13 -69 13q-73 0 -92 -84h-129q17 76 42.5 127.5t58.5 77t66.5 35t77.5 9.5q47 0 97 -18z" />
    <glyph glyph-name="odieresis" unicode="&#xf6;" 
d="M432 377v-213q0 -113 14 -174q23 -99 125 -99q96 0 117 73.5t21 316.5q0 47 -0.5 72t-3 64t-7.5 59.5t-15 47t-24 39t-36 22t-50 9.5q-40 0 -68.5 -15.5t-42 -35.5t-21 -55t-8.5 -55t-1 -56zM141 264q0 47 0.5 73.5t4 77.5t10.5 82.5t21.5 78t34.5 76t52 62.5t72.5 52
t96.5 32t124 13q57 0 98 -4.5t95.5 -19.5t100 -51t79.5 -91q38 -63 52.5 -157t14.5 -248q0 -81 -1 -124.5t-7 -100.5t-18 -92t-34.5 -73t-55.5 -71q-18 -17 -27 -25t-37 -25.5t-56 -27t-75 -17.5t-102 -8q-173 0 -250 43q-45 25 -77.5 56.5t-53.5 73t-33.5 81.5t-19 99.5
t-8 108.5t-1.5 126zM240 926v237h260v-237h-260zM639 926v237h260v-237h-260z" />
    <glyph glyph-name="divide" unicode="&#xf7;" horiz-adv-x="1228" 
d="M1130 88h-1032v246h1032v-246zM426 635q0 78 56.5 134t133.5 56q75 0 132 -57t57 -133q0 -71 -57 -130t-130 -59q-78 0 -135 56t-57 133zM426 -213q0 77 56.5 132.5t133.5 55.5q75 0 132 -56t57 -132q0 -71 -57 -130.5t-130 -59.5q-78 0 -135 56.5t-57 133.5z" />
    <glyph glyph-name="oslash" unicode="&#xf8;" 
d="M434 137l246 391q-29 66 -107 66q-40 0 -68.5 -15.5t-42 -35.5t-21 -55t-8.5 -55t-1 -56v-213q0 -13 2 -27zM709 319l-244 -372q34 -56 106 -56q96 0 117 73.5t21 316.5v38zM1104 903l-170 -264q35 -63 49 -157t14 -242q0 -81 -1 -124.5t-7 -100.5t-18 -92t-34.5 -73
t-55.5 -71q-18 -17 -27 -25t-37 -25.5t-56 -27t-75 -17.5t-102 -8q-155 0 -236 37l-102 -164h-213l182 283q-48 69 -61 166.5t-13 265.5q0 47 0.5 73.5t4 77.5t10.5 82.5t21.5 78t34.5 76t52 62.5t72.5 52t96.5 32t124 13q161 0 248 -47l90 139h209z" />
    <glyph glyph-name="ugrave" unicode="&#xf9;" 
d="M711 778h286v-1085h-262v184h-12q-28 -46 -51.5 -77t-61 -65t-88 -51.5t-112.5 -17.5q-53 0 -96 12.5t-70.5 31t-47.5 46.5t-30.5 53t-16.5 56t-7 50t-1 40v823h287v-706q0 -152 98 -152q41 0 92 29q47 27 93 84v745zM524 1204l193 -297h-207l-301 297h315z" />
    <glyph glyph-name="uacute" unicode="&#xfa;" 
d="M711 778h286v-1085h-262v184h-12q-28 -46 -51.5 -77t-61 -65t-88 -51.5t-112.5 -17.5q-53 0 -96 12.5t-70.5 31t-47.5 46.5t-30.5 53t-16.5 56t-7 50t-1 40v823h287v-706q0 -152 98 -152q41 0 92 29q47 27 93 84v745zM567 1204h318l-303 -297h-207z" />
    <glyph glyph-name="ucircumflex" unicode="&#xfb;" 
d="M711 778h286v-1085h-262v184h-12q-28 -46 -51.5 -77t-61 -65t-88 -51.5t-112.5 -17.5q-53 0 -96 12.5t-70.5 31t-47.5 46.5t-30.5 53t-16.5 56t-7 50t-1 40v823h287v-706q0 -152 98 -152q41 0 92 29q47 27 93 84v745zM698 1204l234 -297h-232l-131 168l-129 -168h-233
l235 297h256z" />
    <glyph glyph-name="udieresis" unicode="&#xfc;" 
d="M711 778h286v-1085h-262v184h-12q-28 -46 -51.5 -77t-61 -65t-88 -51.5t-112.5 -17.5q-53 0 -96 12.5t-70.5 31t-47.5 46.5t-30.5 53t-16.5 56t-7 50t-1 40v823h287v-706q0 -152 98 -152q41 0 92 29q47 27 93 84v745zM240 926v237h260v-237h-260zM639 926v237h260v-237
h-260z" />
    <glyph glyph-name="yacute" unicode="&#xfd;" horiz-adv-x="1024" 
d="M57 778h285l156 -534h16l133 534h281l-271 -1005q-37 -138 -78.5 -225t-96.5 -134t-115 -63.5t-150 -16.5q-67 0 -141 15v241l104 -12q105 0 150 74q26 38 31.5 65t5.5 82zM510 1204h317l-303 -297h-207z" />
    <glyph glyph-name="thorn" unicode="&#xfe;" 
d="M137 -662v1858h289v-532h18q52 72 107 104q68 43 160 43q208 0 258 -211q11 -43 16 -119.5t5.5 -127t0.5 -167.5q0 -200 -8 -269.5t-45 -127.5q-70 -106 -225 -106q-170 0 -273 159h-14v-504h-289zM426 479v-489q34 -27 51 -39t49.5 -26.5t61.5 -14.5q28 0 48 6t32.5 25
t19.5 35.5t10 58t3.5 69.5t0.5 92v5q0 194 -8 248q-5 37 -17 60.5t-30 33t-30.5 12t-30.5 2.5q-86 0 -160 -78z" />
    <glyph glyph-name="ydieresis" unicode="&#xff;" horiz-adv-x="1024" 
d="M57 778h285l156 -534h16l133 534h281l-271 -1005q-37 -138 -78.5 -225t-96.5 -134t-115 -63.5t-150 -16.5q-67 0 -141 15v241l104 -12q105 0 150 74q26 38 31.5 65t5.5 82zM182 926v237h260v-237h-260zM582 926v237h260v-237h-260z" />
    <glyph glyph-name="dotlessi" unicode="&#x131;" horiz-adv-x="569" 
d="M143 -143v1085h283v-1085h-283z" />
    <glyph glyph-name="Lslash" unicode="&#x141;" horiz-adv-x="1251" 
d="M848 868v-209l-356 -161v-361h661v-280h-997v530l-156 -72v209l156 72v764h336v-653z" />
    <glyph glyph-name="lslash" unicode="&#x142;" horiz-adv-x="569" 
d="M569 774v-213l-139 -57v-647h-289v569l-141 -57v213l141 57v721h289v-643z" />
    <glyph glyph-name="OE" unicode="&#x152;" horiz-adv-x="1933" 
d="M862 395v467q0 40 -2.5 69t-12.5 63t-28 55t-50.5 35t-78.5 14q-56 0 -97 -18.5t-65.5 -60t-39.5 -79t-20.5 -105t-7 -107t-1.5 -114.5q0 -108 4.5 -180t17.5 -135t37.5 -98t63 -54.5t94.5 -19.5q39 0 69 9.5t49.5 23t33 37.5t20 43.5t10 52t4 50.5t0.5 52zM1849 143
v-276h-1147q-51 0 -85.5 1.5t-89.5 9.5t-97 22.5t-90 43.5t-86 70q-34 37 -58 83t-35.5 84.5t-17.5 92t-7 83t-1 81.5v424q0 262 139 389q121 109 338 109h1180v-264h-604v-326h391v-270h-391v-357h661z" />
    <glyph glyph-name="oe" unicode="&#x153;" horiz-adv-x="1593" 
d="M1440 115l30 -217q-185 -68 -346 -68q-196 0 -295 145h-14q-24 -30 -43.5 -48t-57.5 -43.5t-93.5 -38.5t-126.5 -13q-197 0 -297 129q-60 77 -77.5 180.5t-17.5 290.5q0 154 18.5 246t76.5 164q35 44 82.5 73t93 39.5t68.5 13.5t40 3q170 0 269 -84q18 -12 41 -35
q7 -11 16 -2q21 21 29 31q21 27 87 57.5t154 30.5q167 0 266.5 -89.5t118.5 -248.5q13 -106 13 -301h-527q1 -25 0 -52.5t4 -56t12 -55t24 -50t40.5 -41.5t61 -28t84.5 -10q124 0 266 78zM537 53q29 0 51.5 9t37 21t24.5 37t15 44t7.5 56.5t3 60t0.5 67.5q0 259 -21.5 329.5
t-122.5 70.5q-89 0 -116 -77.5t-27 -281.5q0 -138 13.5 -209t44 -99t90.5 -28zM944 492h279q0 44 -0.5 66t-2 56t-5.5 50.5t-10.5 39.5t-17.5 34t-26 22.5t-36 15.5t-48 4q-88 0 -123 -96q-10 -27 -10 -192z" />
    <glyph glyph-name="Scaron" unicode="&#x160;" horiz-adv-x="1251" 
d="M1118 1120l-248 -164q-38 72 -107 120t-153 48q-48 0 -84 -14t-52.5 -32t-26.5 -41.5t-11.5 -35.5t-1.5 -22q0 -31 11.5 -57t28.5 -43.5t44.5 -34t50.5 -26t56 -21.5l190 -70q75 -28 145 -73.5t111 -102.5q84 -117 84 -264q0 -269 -213 -398q-61 -37 -142.5 -56
t-146.5 -19q-207 0 -332 65t-223 240l256 170q42 -97 116 -151t169 -54q31 0 62.5 8t64.5 25.5t53.5 53t20.5 83.5q0 19 -3 35t-6.5 28.5t-15.5 25.5t-20 22t-30.5 21.5t-36.5 20t-49 22t-56.5 23t-69.5 27.5q-55 21 -95.5 39t-87.5 44t-80 52t-65.5 62.5t-52 77.5t-31.5 95
t-12 116q0 190 131 308t358 118q164 0 285 -67t215 -204zM756 1489h-256l-236 297h234l129 -168l131 168h231z" />
    <glyph glyph-name="scaron" unicode="&#x161;" horiz-adv-x="909" 
d="M795 860l-123 -178q-74 51 -117.5 69.5t-93.5 18.5q-51 0 -81 -22.5t-30 -61.5q0 -40 34.5 -65.5t111.5 -59.5q42 -19 67.5 -31.5t64.5 -35t63.5 -42.5t53 -50.5t44.5 -62.5t27 -74.5t11 -90.5q0 -79 -27 -141.5t-67.5 -100t-92 -62t-96.5 -33.5t-85 -9q-69 0 -130 13.5
t-107.5 38t-72 41.5t-55.5 42l129 197q37 -38 61.5 -59.5t71 -42.5t97.5 -21q58 0 85 30t27 66q0 22 -6.5 38t-27.5 31t-37 23.5t-58 28.5q-183 85 -261.5 170.5t-78.5 210.5q0 87 38 161.5t116 121.5q41 25 85.5 37.5t69 14t64.5 1.5q95 0 186 -34.5t140 -76.5zM584 1071
h-256l-236 297h234l129 -168l131 168h231z" />
    <glyph glyph-name="Ydieresis" unicode="&#x178;" horiz-adv-x="1366" 
d="M860 -143h-332v594l-475 909h355l190 -375q53 -110 86 -184h10q13 29 86 180l183 379h350l-453 -897v-606zM354 1507v238h260v-238h-260zM754 1507v238h260v-238h-260z" />
    <glyph glyph-name="Zcaron" unicode="&#x17d;" horiz-adv-x="1251" 
d="M152 1085v275h999v-266l-643 -957h643v-280h-1049v272l664 956h-614zM756 1489h-256l-236 297h234l129 -168l131 168h231z" />
    <glyph glyph-name="zcaron" unicode="&#x17e;" horiz-adv-x="909" 
d="M76 -143v198l426 676h-408v211h731v-199l-417 -671h426v-215h-758zM584 1071h-256l-236 297h234l129 -168l131 168h231z" />
    <glyph glyph-name="florin" unicode="&#x192;" 
d="M242 621v217h196q38 245 45 268q34 125 118.5 200.5t215.5 75.5q57 0 108.5 -10t79.5 -20.5t78 -32.5l-63 -211q-46 31 -68 39t-65 8q-27 0 -47 -7t-35 -24.5t-25 -40t-19 -61.5t-16.5 -79.5t-17.5 -103.5v-1h246v-217h-262l-97 -750q-9 -72 -31.5 -129t-48 -92.5
t-63 -61.5t-66.5 -38t-69.5 -18.5t-60 -7.5t-50.5 -1q-111 0 -229 41l59 235q13 -19 47 -35t72 -16q27 0 48 6.5t35.5 14.5t26 27t17.5 33t12.5 45t9 49.5t7.5 58.5l80 639h-168z" />
    <glyph glyph-name="circumflex" unicode="&#x2c6;" horiz-adv-x="569" 
d="M414 1368l233 -297h-231l-131 168l-129 -168h-234l236 297h256z" />
    <glyph glyph-name="caron" unicode="&#x2c7;" horiz-adv-x="569" 
d="M414 1071h-256l-236 297h234l129 -168l131 168h231z" />
    <glyph glyph-name="uni02C9" unicode="&#x2c9;" horiz-adv-x="569" 
d="M-70 1135v151h709v-151h-709z" />
    <glyph glyph-name="breve" unicode="&#x2d8;" horiz-adv-x="569" 
d="M-59 1368h133q10 -47 33 -77.5t57 -43t61 -16.5t64 -4q51 0 89 10.5t58 24t34 36t18 35.5t8 35h133q-12 -143 -119 -229q-84 -68 -250 -68q-118 0 -190 51q-38 26 -64 58.5t-39 72t-17 59.5t-9 56z" />
    <glyph glyph-name="dotaccent" unicode="&#x2d9;" horiz-adv-x="569" 
d="M143 1075v262h285v-262h-285z" />
    <glyph glyph-name="ring" unicode="&#x2da;" horiz-adv-x="569" 
d="M127 1208q0 66 47 113t113 47q67 0 114.5 -47t47.5 -113q0 -67 -47 -114t-115 -47q-66 0 -113 47t-47 114zM356 1210q0 30 -19 50t-48 20t-47.5 -20t-18.5 -50t18.5 -50.5t47.5 -20.5t48 20.5t19 50.5z" />
    <glyph glyph-name="ogonek" unicode="&#x2db;" horiz-adv-x="569" 
d="M498 -412v-106q-92 -92 -232 -92q-100 0 -176 51t-76 145q0 73 73.5 135t246.5 136h164q-147 -87 -226 -159.5t-79 -123.5q0 -34 29.5 -57t80.5 -23q88 0 195 94z" />
    <glyph glyph-name="tilde" unicode="&#x2dc;" horiz-adv-x="569" 
d="M252 1317l94 -35q59 -22 80 -22q81 0 100 86h133q-4 -27 -11.5 -56t-25.5 -64.5t-42 -63t-64 -46t-88 -18.5q-24 0 -45 5t-102 30l-80 24q-46 12 -70 12q-73 0 -92 -84h-129q17 76 42.5 127.5t59 77t67 35.5t77.5 10q46 0 96 -18z" />
    <glyph glyph-name="hungarumlaut" unicode="&#x2dd;" horiz-adv-x="569" 
d="M229 1368h256l-245 -297h-166zM633 1368h258l-246 -297h-168z" />
    <glyph glyph-name="uni03A9" unicode="&#x3a9;" horiz-adv-x="1433" 
d="M348 78v8q-105 109 -175.5 266.5t-70.5 345.5q0 191 77 350.5t220 255t324 95.5q115 0 214.5 -40.5t169.5 -108.5t120 -156.5t74 -184.5t24 -192q0 -194 -72 -359.5t-176 -271.5v-8h277v-221h-537v161q101 72 168.5 233t67.5 404q0 138 -36.5 252t-114 187t-183.5 73
q-156 0 -250 -146.5t-94 -377.5q0 -224 68.5 -391.5t166.5 -233.5v-161h-536v221h274z" />
    <glyph glyph-name="uni03BC" unicode="&#x3bc;" horiz-adv-x="1179" 
d="M825 -143v147h-4q-43 -78 -110.5 -125t-147.5 -47q-65 0 -111.5 23t-82.5 75l-4 -4q10 -152 10 -168v-295h-287v1479h287v-682q0 -105 54.5 -168t154.5 -63q108 0 174.5 79.5t66.5 184.5v649h287v-1085h-287z" />
    <glyph glyph-name="pi" unicode="&#x3c0;" horiz-adv-x="1236" 
d="M1190 764h-143v-594q0 -203 26 -313h-258q-37 70 -37 305v602h-276q-9 -200 -45.5 -471.5t-87.5 -435.5h-258q51 189 87.5 456t39.5 451q-122 0 -197 -21l-31 183q92 71 338 71h860z" />
    <glyph glyph-name="endash" unicode="&#x2013;" horiz-adv-x="1024" 
d="M-2 641h1026v-190h-1026v190z" />
    <glyph glyph-name="emdash" unicode="&#x2014;" horiz-adv-x="2048" 
d="M1792 641v-190h-1536v190h1536z" />
    <glyph glyph-name="quoteleft" unicode="&#x2018;" horiz-adv-x="569" 
d="M309 1133h137v-308h-317v344l172 334h148z" />
    <glyph glyph-name="quoteright" unicode="&#x2019;" horiz-adv-x="569" 
d="M260 1196h-137v307h317v-344l-172 -334h-147z" />
    <glyph glyph-name="quotesinglbase" unicode="&#x201a;" horiz-adv-x="569" 
d="M260 371h-137v307h317v-344l-172 -334h-147z" />
    <glyph glyph-name="quotedblleft" unicode="&#x201c;" 
d="M309 1133h137v-308h-317v344l172 334h148zM856 1133h137v-308h-317v344l172 334h147z" />
    <glyph glyph-name="quotedblright" unicode="&#x201d;" 
d="M283 1196h-138v307h318v-344l-172 -334h-148zM829 1196h-137v307h318v-344l-172 -334h-148z" />
    <glyph glyph-name="quotedblbase" unicode="&#x201e;" 
d="M260 37h-137v307h317v-344l-172 -334h-147zM813 37h-137v307h317v-344l-172 -334h-147z" />
    <glyph glyph-name="dagger" unicode="&#x2020;" 
d="M176 963v260l352 -84l-92 407h264l-92 -407l355 84v-256l-355 86q15 -54 58 -219q1 -5 9.5 -29.5t15.5 -48t7 -33.5q0 -5 -8 -35t-10 -41q-21 -113 -29 -205l-45 -501h-78l-20 274q-17 222 -55 438q-1 6 -5.5 22.5t-8 30t-3.5 17.5q0 8 2 12l29 94q19 64 61 228z" />
    <glyph glyph-name="daggerdbl" unicode="&#x2021;" 
d="M176 963v262l352 -90l-88 411h265l-97 -411l355 94v-260l-351 86q33 -162 47 -205q11 -40 17 -53q20 -46 20 -49t-7 -24l-15 -45l-10 -30q-42 -148 -50 -217l349 92v-262l-347 90l82 -411h-258l84 411l-348 -90v262l354 -92q-9 53 -37.5 154.5t-50.5 161.5q58 146 86 307
z" />
    <glyph glyph-name="bullet" unicode="&#x2022;" horiz-adv-x="1024" 
d="M860 717q0 -145 -101.5 -246.5t-246.5 -101.5t-246.5 101t-101.5 247q-2 145 100 246.5t248 101.5q145 0 246.5 -101.5t101.5 -246.5z" />
    <glyph glyph-name="ellipsis" unicode="&#x2026;" horiz-adv-x="2048" 
d="M184 0v322h314v-322h-314zM868 0v322h314v-322h-314zM1552 0v322h314v-322h-314z" />
    <glyph glyph-name="perthousand" unicode="&#x2030;" horiz-adv-x="2048" 
d="M330 1323q-54 0 -92.5 -38t-38.5 -93t37.5 -92t93.5 -37q55 0 93 37t38 92t-39 93t-92 38zM16 1200q0 127 92 216t222 89q129 0 221 -91t92 -218t-91 -222t-222 -95q-128 0 -221 91t-93 230zM940 422q-53 0 -91 -38t-38 -93t37.5 -92t91.5 -37q55 0 93 37t38 92t-39 93
t-92 38zM629 299q0 127 91 216t220 89q130 0 221.5 -90.5t91.5 -218.5q0 -127 -90 -220t-223 -93q-127 0 -219 89t-92 228zM1704 422q-54 0 -91.5 -38t-37.5 -93t36.5 -92t92.5 -37q55 0 93 37t38 92t-39 93t-92 38zM1391 299q0 127 92.5 216t220.5 89q130 0 221.5 -90.5
t91.5 -218.5q0 -127 -90 -220t-223 -93q-127 0 -220 89.5t-93 227.5zM74 -41l981 1567h145l-979 -1567h-147z" />
    <glyph glyph-name="guilsinglleft" unicode="&#x2039;" horiz-adv-x="681" 
d="M305 872h256l-256 -319l264 -315h-258l-264 315z" />
    <glyph glyph-name="guilsinglright" unicode="&#x203a;" horiz-adv-x="681" 
d="M121 872h256l258 -319l-264 -315h-258l264 315z" />
    <glyph glyph-name="fraction" unicode="&#x2044;" horiz-adv-x="342" 
d="M537 1532h145l-875 -1581h-147z" />
    <glyph glyph-name="Euro" unicode="&#x20ac;" 
d="M1049 1452v-262q-88 84 -269 84q-251 0 -291 -268h496l-67 -203h-453q0 -7 -1 -27t-1 -31q0 -13 1 -37t1 -32h407l-65 -203h-318q40 -274 293 -274q171 0 267 84v-267q-35 -24 -117 -43.5t-195 -19.5q-454 0 -530 520h-170l67 203h82q-4 36 -4 67q0 24 4 60h-149l67 203
h99q81 518 534 518q104 0 188 -22t124 -50z" />
    <glyph glyph-name="afii61289" unicode="&#x2113;" horiz-adv-x="1052" 
d="M911 367l107 -111q-144 -297 -424 -297q-93 0 -164 28.5t-114 79.5t-67 113.5t-30 138.5v25q-97 -80 -108 -88l-66 143q19 16 57 48.5t64.5 56t50.5 47.5v553q0 137 29.5 243.5t81 171t117.5 97.5t143 33q141 0 212.5 -107t71.5 -278q0 -181 -102 -366t-295 -382v-102
q1 -116 51 -178t129 -62q75 0 140.5 55.5t115.5 137.5zM475 1096v-328q108 135 172 267t64 241q0 87 -26 131.5t-85 44.5q-24 0 -45 -17t-39.5 -55.5t-29.5 -111t-11 -172.5z" />
    <glyph glyph-name="trademark" unicode="&#x2122;" horiz-adv-x="2048" 
d="M778 1434v-185h-229v-659h-246v659h-229v185h704zM1290 1434l183 -490l182 490h319v-844h-221v553h-4l-186 -553h-181l-186 553h-4v-553h-221v844h319z" />
    <glyph glyph-name="Omega" unicode="&#x2126;" horiz-adv-x="1433" 
d="M348 221v8q-105 108 -175.5 266t-70.5 347q0 191 77 350.5t220 254.5t324 95q115 0 214.5 -40.5t169.5 -108.5t120 -156.5t74 -184.5t24 -192q0 -194 -72 -359.5t-176 -271.5v-8h277v-221h-537v162q101 72 168.5 233t67.5 404q0 138 -36.5 252t-114 187t-183.5 73
q-156 0 -250 -147t-94 -378q0 -224 68.5 -391t166.5 -233v-162h-536v221h274z" />
    <glyph glyph-name="estimated" unicode="&#x212e;" horiz-adv-x="1898" 
d="M1823 717h-1415q-13 0 -13 -10v-428q0 -28 19 -50q106 -109 243.5 -170t292.5 -61q166 0 312 69t251 191h125q-119 -141 -301.5 -223t-390.5 -82q-177 0 -338.5 62t-278.5 167t-186 250t-69 305q0 161 69 307t186 251.5t278.5 168t338.5 62.5q179 0 341.5 -62.5
t279.5 -168t186.5 -251.5t69.5 -307v-20zM1501 772v432q0 31 -20 51q-106 105 -243 164.5t-288 59.5q-152 0 -290 -62t-244 -170q-21 -21 -21 -53v-422q0 -4 4 -9t9 -5h1085q8 0 8 14z" />
    <glyph glyph-name="partialdiff" unicode="&#x2202;" horiz-adv-x="1185" 
d="M215 1364l-74 207q159 123 377 123q90 0 172.5 -32t154.5 -99t124.5 -163t83 -232.5t30.5 -299.5q0 -276 -67 -480t-198 -315.5t-312 -111.5q-83 0 -154 30.5t-120 81t-84 117t-51.5 138.5t-16.5 145q0 259 129 416.5t317 157.5q57 0 109 -17.5t88 -44.5t59 -52t37 -48h2
q2 16 2 71q0 133 -41.5 248.5t-121 188.5t-179.5 73q-142 0 -266 -102zM532 190h3q55 0 102.5 42t79.5 110t53 148t29 163q-19 61 -78.5 116.5t-142.5 55.5q-101 0 -167.5 -108t-66.5 -254q0 -118 51 -195.5t137 -77.5z" />
    <glyph glyph-name="Delta" unicode="&#x2206;" horiz-adv-x="1343" 
d="M55 0v160l467 1390h316l448 -1384v-166h-1231zM328 219h678l-218 625q-14 53 -58.5 198t-55.5 197h-8q-9 -44 -51 -176.5t-56 -185.5z" />
    <glyph glyph-name="product" unicode="&#x220f;" horiz-adv-x="1488" 
d="M1434 1270h-207v-1479h-264v1479h-439v-1479h-266v1479h-205v248h1381v-248z" />
    <glyph glyph-name="summation" unicode="&#x2211;" horiz-adv-x="1144" 
d="M1106 -211h-1057v178l496 690l-479 670v191h1007v-230h-651v-8l422 -575l-471 -654v-6h733v-256z" />
    <glyph glyph-name="minus" unicode="&#x2212;" horiz-adv-x="1228" 
d="M1130 395h-1032v246h1032v-246z" />
    <glyph glyph-name="uni2215" unicode="&#x2215;" horiz-adv-x="342" 
d="M537 1532h145l-875 -1581h-147z" />
    <glyph glyph-name="uni2219" unicode="&#x2219;" horiz-adv-x="569" 
d="M119 674q0 66 48.5 115t117.5 49q67 0 116.5 -49t49.5 -115q0 -67 -49 -115.5t-117 -48.5q-70 0 -118 48.5t-48 115.5z" />
    <glyph glyph-name="radical" unicode="&#x221a;" horiz-adv-x="1228" 
d="M1239 1825l-459 -2126h-213l-303 950l-153 -61l-43 155l356 144l207 -674q7 -34 22 -102t19 -93l4 -2q15 118 31 209l350 1600h182z" />
    <glyph glyph-name="infinity" unicode="&#x221e;" horiz-adv-x="1640" 
d="M1538 629v-2q0 -166 -101 -267.5t-239 -101.5q-98 0 -187 53.5t-188 186.5q-94 -117 -184 -178.5t-207 -61.5q-135 0 -233.5 101.5t-98.5 256.5q0 159 99.5 261t251.5 102q110 0 198.5 -59t179.5 -175q83 94 119 127q122 107 262 107q141 -2 234.5 -98.5t93.5 -251.5z
M453 408h2q42 0 80.5 15.5t77.5 49.5t63.5 60.5t64.5 74.5q-81 108 -111 139q-86 87 -186 87q-89 0 -140.5 -62t-51.5 -160q0 -85 57.5 -144.5t143.5 -59.5zM1196 834h-2q-31 0 -63 -11.5t-54 -24.5t-52.5 -42t-43.5 -42.5t-43 -49.5t-35 -41q100 -124 161 -169.5t140 -45.5
q82 0 132 65t50 141q0 96 -52.5 158t-137.5 62z" />
    <glyph glyph-name="integral" unicode="&#x222b;" horiz-adv-x="839" 
d="M784 1853l-26 -188q-40 16 -74 16q-66 0 -102 -55q-32 -40 -44 -128t-12 -236q0 -172 14.5 -508.5t14.5 -536.5q0 -291 -74 -436q-40 -80 -113.5 -118t-158.5 -38q-104 0 -160 35l33 195q58 -23 88 -23q58 0 90 43q55 80 55 338q0 202 -15 546.5t-15 526.5q0 191 29 305
t96 187q43 49 109 74.5t138 25.5q65 0 127 -25z" />
    <glyph glyph-name="approxequal" unicode="&#x2248;" horiz-adv-x="1134" 
d="M958 973l95 -86q-48 -100 -121.5 -160.5t-159.5 -60.5q-58 0 -106 19t-123 65q-57 37 -95 54t-83 17q-33 0 -60.5 -11.5t-52 -37t-39.5 -45.5t-39 -57l-96 84q48 98 127.5 158.5t173.5 60.5q29 0 54.5 -4t52.5 -15.5t39 -16.5t41.5 -22t31.5 -18q7 -5 25 -16t25 -15
t21.5 -13t21.5 -12t19.5 -8.5t21.5 -7.5t20 -4t22 -2q56 0 96 37.5t88 116.5zM958 578l95 -84q-48 -100 -121 -161t-160 -61q-58 0 -107.5 19t-121.5 65q-39 26 -61 38.5t-54 23t-63 10.5q-41 0 -78 -24.5t-54.5 -47t-51.5 -72.5q-5 -7 -7 -10l-96 86q48 98 127.5 159
t171.5 61q24 0 49 -4t41 -8.5t39.5 -15t32 -15t31.5 -18t26 -15.5q13 -7 46 -27.5t47 -27.5t38.5 -15t46.5 -8q57 0 96.5 37t87.5 115z" />
    <glyph glyph-name="notequal" unicode="&#x2260;" horiz-adv-x="1134" 
d="M836 1102l-80 -187h278v-157h-334l-122 -285h456v-158h-516l-100 -235l-123 47l82 188h-277v158h336l121 285h-457v157h514l101 234z" />
    <glyph glyph-name="lessequal" unicode="&#x2264;" horiz-adv-x="1134" 
d="M1028 215l-917 475v170l917 473v-184l-766 -371v-6l766 -373v-184zM1038 -25h-936v160h936v-160z" />
    <glyph glyph-name="greaterequal" unicode="&#x2265;" horiz-adv-x="1134" 
d="M115 1333l917 -475v-170l-915 -473v184l764 373v6l-766 371v184zM1034 -25h-930v160h930v-160z" />
    <glyph glyph-name="lozenge" unicode="&#x25ca;" horiz-adv-x="1224" 
d="M1122 758l-407 -862h-217l-394 862l408 864h215zM885 752l-228 508q-31 94 -39 137h-6q-15 -63 -41 -137l-229 -496l229 -516q26 -82 35 -131h10q13 72 35 127z" />
    </font>
</defs>
</svg>
